<svg width="15" height="15" viewBox="0 0 15 15" fill="none" xmlns="http://www.w3.org/2000/svg">
<circle cx="7.5" cy="7.5" r="7.5" fill="black"/>
<path d="M8.37207 8.92676H7.2002L7.03418 4H8.53809L8.37207 8.92676ZM7.78613 9.69824C8.02376 9.69824 8.21419 9.76823 8.35742 9.9082C8.50391 10.0482 8.57715 10.2272 8.57715 10.4453C8.57715 10.6602 8.50391 10.8376 8.35742 10.9775C8.21419 11.1175 8.02376 11.1875 7.78613 11.1875C7.55176 11.1875 7.36133 11.1175 7.21484 10.9775C7.07161 10.8376 7 10.6602 7 10.4453C7 10.2305 7.07161 10.0531 7.21484 9.91309C7.36133 9.76986 7.55176 9.69824 7.78613 9.69824Z" fill="white"/>
</svg>
