<svg width="9" height="10" viewBox="0 0 9 10" fill="none" xmlns="http://www.w3.org/2000/svg">
<path d="M8.05873 0.915096C6.80459 -0.305032 4.76228 -0.305032 3.50947 0.915096L0.0346277 4.29312C0.0119946 4.31514 1.23083e-05 4.34493 1.23083e-05 4.37601C1.23083e-05 4.4071 0.0119946 4.43689 0.0346277 4.45891L0.525899 4.93686C0.548355 4.95861 0.578752 4.97082 0.61044 4.97082C0.642128 4.97082 0.672526 4.95861 0.694981 4.93686L4.16983 1.55884C4.60119 1.13917 5.175 0.90862 5.78476 0.90862C6.39453 0.90862 6.96834 1.13917 7.39837 1.55884C7.82973 1.9785 8.06671 2.53675 8.06671 3.12868C8.06671 3.72191 7.82973 4.27887 7.39837 4.69853L3.85696 8.14261L3.28314 8.70086C2.74661 9.22285 1.87457 9.22285 1.33803 8.70086C1.07841 8.44829 0.935957 8.11282 0.935957 7.75533C0.935957 7.39784 1.07841 7.06237 1.33803 6.80979L4.85148 3.39291C4.94068 3.30743 5.05784 3.2595 5.18299 3.2595H5.18432C5.30947 3.2595 5.4253 3.30743 5.51317 3.39291C5.60237 3.4797 5.6503 3.59368 5.6503 3.71543C5.6503 3.83589 5.60104 3.94987 5.51317 4.03536L2.64143 6.82663C2.61879 6.84865 2.60681 6.87844 2.60681 6.90953C2.60681 6.94061 2.61879 6.9704 2.64143 6.99242L3.1327 7.47037C3.15515 7.49212 3.18555 7.50433 3.21724 7.50433C3.24893 7.50433 3.27933 7.49212 3.30178 7.47037L6.17219 4.67781C6.43713 4.42005 6.58225 4.0781 6.58225 3.71414C6.58225 3.35017 6.4358 3.00693 6.17219 2.75047C5.625 2.21812 4.73565 2.21942 4.18847 2.75047L3.84764 3.08335L0.676342 6.16735C0.461103 6.37552 0.290486 6.6232 0.174387 6.89601C0.0582886 7.16883 -0.000982105 7.46135 1.23083e-05 7.75662C1.23083e-05 8.35632 0.240988 8.91976 0.676342 9.34331C1.12767 9.7811 1.7188 10 2.30992 10C2.90104 10 3.49217 9.7811 3.94216 9.34331L8.05873 5.34097C8.66449 4.75034 9 3.96412 9 3.12868C9.00133 2.29195 8.66582 1.50573 8.05873 0.915096Z" fill="#44494A"/>
</svg>
