<svg width="141" height="225" viewBox="0 0 141 225" fill="none" xmlns="http://www.w3.org/2000/svg">
<mask id="path-1-outside-1" maskUnits="userSpaceOnUse" x="-1" y="0" width="142" height="225" fill="black">
<rect fill="white" x="-1" width="142" height="225"/>
<path d="M122.535 16.6006C125.59 16.6006 128.358 16.3777 131.079 16.6518C135.5 17.0977 139.108 21.0198 139.829 25.7497C140.573 30.6331 138.496 35.4507 134.492 37.6731C133.298 38.3347 132.997 39.095 133.004 40.4731C133.05 52.5939 133.043 64.7183 133.01 76.8391C133.007 78.0563 133.265 78.7399 134.349 79.3613C137.974 81.4301 139.931 84.8259 139.928 89.373C139.925 93.9969 137.931 97.3999 134.22 99.4761C133.271 100.006 133.007 100.613 133.01 101.72C133.04 114.086 133.04 126.452 133.01 138.818C133.007 139.881 133.324 140.397 134.184 140.89C137.864 142.992 139.921 146.355 139.928 150.986C139.934 155.69 137.848 159.031 134.138 161.275C133.615 161.593 133.076 162.511 133.073 163.154C133.01 175.582 133.033 188.006 133.01 200.434C133.007 201.458 133.252 202.031 134.154 202.532C138.516 204.956 140.751 210.018 139.772 214.964C138.731 220.22 134.683 223.915 129.654 223.959C120.508 224.032 111.358 223.985 102.211 223.985C72.2327 223.985 42.2573 223.988 12.2786 223.981C6.79936 223.981 2.95695 221.101 1.5053 215.943C0.0205882 210.665 2.13689 205.164 6.75307 202.576C7.67895 202.057 8.00301 201.494 7.9997 200.361C7.96333 187.995 7.96663 175.63 7.99639 163.264C7.9997 162.218 7.73186 161.659 6.84896 161.166C3.14213 159.093 1.10519 155.719 1.07874 151.092C1.05228 146.384 3.11898 142.963 6.88203 140.857C7.78807 140.349 7.99639 139.757 7.99639 138.741C7.96994 126.375 7.96663 114.009 8.00301 101.644C8.00631 100.5 7.64257 99.9622 6.73323 99.4432C3.09584 97.3743 1.12173 94.0261 1.08204 89.4826C1.04567 84.8551 3.0297 81.4338 6.71008 79.3174C7.70871 78.7435 8.00301 78.1294 7.9997 76.9488C7.96333 64.6452 7.99309 52.338 7.93687 40.0344C7.93357 39.3546 7.51031 38.3567 7.01099 38.0496C2.47087 35.2534 0.185924 30.3078 1.26391 25.3257C2.42127 19.9817 6.35626 16.5933 11.6338 16.4069C12.1827 16.3886 12.7349 16.3996 13.2871 16.3996C39.8467 16.3996 66.4096 16.3996 92.9691 16.3996C95.0987 16.3996 95.0987 16.3959 95.102 14.0164C95.102 13.1026 95.0788 12.1887 95.1086 11.2749C95.1582 9.63373 95.3037 8.157 93.2634 7.55754C91.9837 7.18105 91.5241 5.6093 91.7424 4.06313C91.9606 2.50599 92.8534 1.57756 94.1728 1.16451C94.6919 1.00368 95.264 1.01465 95.8129 1.01465C104.513 1.01099 113.219 1.02561 121.926 1.00003C123.46 0.996372 124.783 1.3619 125.6 2.91538C126.602 4.81611 125.782 7.33457 123.804 7.92307C122.657 8.26666 122.488 8.89171 122.518 9.98463C122.571 12.0425 122.535 14.0968 122.535 16.6006ZM126.38 39.1718C89.0275 39.1718 51.8766 39.1718 14.6627 39.1718C14.6627 52.1699 14.6627 65.04 14.6627 77.9503C51.9625 77.9503 89.1565 77.9503 126.38 77.9503C126.38 64.9779 126.38 52.1443 126.38 39.1718ZM14.6264 201.224C51.9857 201.224 89.1532 201.224 126.321 201.224C126.321 188.233 126.321 175.366 126.321 162.471C89.0209 162.471 51.8567 162.471 14.6264 162.471C14.6264 175.439 14.6264 188.273 14.6264 201.224ZM126.374 100.854C89.0176 100.854 51.86 100.854 14.6991 100.854C14.6991 113.841 14.6991 126.708 14.6991 139.549C51.9923 139.549 89.1466 139.549 126.374 139.549C126.374 126.591 126.374 113.772 126.374 100.854ZM70.4802 146.903C51.202 146.903 31.9205 146.899 12.6423 146.914C11.8256 146.914 10.9824 146.972 10.1954 147.203C8.64782 147.66 7.59959 149.279 7.59297 151.004C7.58636 152.722 8.63128 154.378 10.1689 154.827C11.0055 155.072 11.9049 155.142 12.7779 155.142C51.2813 155.156 89.7848 155.156 128.288 155.153C131.611 155.153 133.47 153.625 133.414 150.942C133.361 148.31 131.585 146.899 128.315 146.899C109.036 146.903 89.7583 146.903 70.4802 146.903ZM70.3115 216.74C89.6988 216.74 109.089 216.74 128.477 216.74C131.645 216.74 133.354 215.347 133.41 212.745C133.47 210.088 131.694 208.596 128.45 208.596C89.8377 208.593 51.2251 208.596 12.6159 208.6C11.9578 208.6 11.2866 208.604 10.6385 208.713C8.88259 209.017 7.58636 210.746 7.59959 212.683C7.60951 214.638 8.89913 216.338 10.6649 216.619C11.4222 216.74 12.2025 216.736 12.9697 216.736C32.0858 216.74 51.1987 216.74 70.3115 216.74ZM70.586 23.6516C51.3078 23.6516 32.0296 23.6516 12.7548 23.6589C11.9876 23.6589 11.2006 23.6516 10.4566 23.8307C8.74702 24.2401 7.57644 25.9288 7.59959 27.7893C7.62273 29.5987 8.72057 31.1887 10.3905 31.6018C11.237 31.8138 12.1364 31.8467 13.0094 31.8467C51.3442 31.8576 89.679 31.8576 128.014 31.8576C128.401 31.8576 128.784 31.8686 129.171 31.854C131.74 31.7516 133.394 30.1616 133.417 27.782C133.443 25.3294 131.734 23.7028 129.082 23.6553C128.642 23.6479 128.199 23.6553 127.759 23.6553C108.699 23.6516 89.6426 23.6516 70.586 23.6516ZM70.4239 93.4632C89.6459 93.4632 108.871 93.4632 128.093 93.4596C128.864 93.4596 129.644 93.4669 130.398 93.328C132.164 93.0026 133.44 91.2664 133.42 89.3364C133.4 87.4028 132.091 85.725 130.315 85.4436C129.611 85.3303 128.89 85.3157 128.176 85.3157C89.7286 85.3083 51.2846 85.3083 12.8374 85.3157C12.1232 85.3157 11.4023 85.3303 10.698 85.4436C8.92228 85.725 7.61281 87.3991 7.59297 89.3364C7.57313 91.2664 8.84953 93.0026 10.6153 93.328C11.3692 93.4669 12.1496 93.4596 12.9201 93.4596C32.0891 93.4632 51.2549 93.4632 70.4239 93.4632ZM101.682 16.257C106.517 16.257 111.196 16.257 116.047 16.257C116.047 14.0054 115.994 11.8927 116.067 9.78359C116.11 8.56274 115.69 8.2228 114.635 8.23742C110.683 8.28859 106.728 8.2557 102.774 8.27032C102.416 8.27032 102.063 8.41287 101.679 8.49694C101.682 11.0922 101.682 13.5704 101.682 16.257Z"/>
</mask>
<path d="M122.535 16.6006C125.59 16.6006 128.358 16.3777 131.079 16.6518C135.5 17.0977 139.108 21.0198 139.829 25.7497C140.573 30.6331 138.496 35.4507 134.492 37.6731C133.298 38.3347 132.997 39.095 133.004 40.4731C133.05 52.5939 133.043 64.7183 133.01 76.8391C133.007 78.0563 133.265 78.7399 134.349 79.3613C137.974 81.4301 139.931 84.8259 139.928 89.373C139.925 93.9969 137.931 97.3999 134.22 99.4761C133.271 100.006 133.007 100.613 133.01 101.72C133.04 114.086 133.04 126.452 133.01 138.818C133.007 139.881 133.324 140.397 134.184 140.89C137.864 142.992 139.921 146.355 139.928 150.986C139.934 155.69 137.848 159.031 134.138 161.275C133.615 161.593 133.076 162.511 133.073 163.154C133.01 175.582 133.033 188.006 133.01 200.434C133.007 201.458 133.252 202.031 134.154 202.532C138.516 204.956 140.751 210.018 139.772 214.964C138.731 220.22 134.683 223.915 129.654 223.959C120.508 224.032 111.358 223.985 102.211 223.985C72.2327 223.985 42.2573 223.988 12.2786 223.981C6.79936 223.981 2.95695 221.101 1.5053 215.943C0.0205882 210.665 2.13689 205.164 6.75307 202.576C7.67895 202.057 8.00301 201.494 7.9997 200.361C7.96333 187.995 7.96663 175.63 7.99639 163.264C7.9997 162.218 7.73186 161.659 6.84896 161.166C3.14213 159.093 1.10519 155.719 1.07874 151.092C1.05228 146.384 3.11898 142.963 6.88203 140.857C7.78807 140.349 7.99639 139.757 7.99639 138.741C7.96994 126.375 7.96663 114.009 8.00301 101.644C8.00631 100.5 7.64257 99.9622 6.73323 99.4432C3.09584 97.3743 1.12173 94.0261 1.08204 89.4826C1.04567 84.8551 3.0297 81.4338 6.71008 79.3174C7.70871 78.7435 8.00301 78.1294 7.9997 76.9488C7.96333 64.6452 7.99309 52.338 7.93687 40.0344C7.93357 39.3546 7.51031 38.3567 7.01099 38.0496C2.47087 35.2534 0.185924 30.3078 1.26391 25.3257C2.42127 19.9817 6.35626 16.5933 11.6338 16.4069C12.1827 16.3886 12.7349 16.3996 13.2871 16.3996C39.8467 16.3996 66.4096 16.3996 92.9691 16.3996C95.0987 16.3996 95.0987 16.3959 95.102 14.0164C95.102 13.1026 95.0788 12.1887 95.1086 11.2749C95.1582 9.63373 95.3037 8.157 93.2634 7.55754C91.9837 7.18105 91.5241 5.6093 91.7424 4.06313C91.9606 2.50599 92.8534 1.57756 94.1728 1.16451C94.6919 1.00368 95.264 1.01465 95.8129 1.01465C104.513 1.01099 113.219 1.02561 121.926 1.00003C123.46 0.996372 124.783 1.3619 125.6 2.91538C126.602 4.81611 125.782 7.33457 123.804 7.92307C122.657 8.26666 122.488 8.89171 122.518 9.98463C122.571 12.0425 122.535 14.0968 122.535 16.6006ZM126.38 39.1718C89.0275 39.1718 51.8766 39.1718 14.6627 39.1718C14.6627 52.1699 14.6627 65.04 14.6627 77.9503C51.9625 77.9503 89.1565 77.9503 126.38 77.9503C126.38 64.9779 126.38 52.1443 126.38 39.1718ZM14.6264 201.224C51.9857 201.224 89.1532 201.224 126.321 201.224C126.321 188.233 126.321 175.366 126.321 162.471C89.0209 162.471 51.8567 162.471 14.6264 162.471C14.6264 175.439 14.6264 188.273 14.6264 201.224ZM126.374 100.854C89.0176 100.854 51.86 100.854 14.6991 100.854C14.6991 113.841 14.6991 126.708 14.6991 139.549C51.9923 139.549 89.1466 139.549 126.374 139.549C126.374 126.591 126.374 113.772 126.374 100.854ZM70.4802 146.903C51.202 146.903 31.9205 146.899 12.6423 146.914C11.8256 146.914 10.9824 146.972 10.1954 147.203C8.64782 147.66 7.59959 149.279 7.59297 151.004C7.58636 152.722 8.63128 154.378 10.1689 154.827C11.0055 155.072 11.9049 155.142 12.7779 155.142C51.2813 155.156 89.7848 155.156 128.288 155.153C131.611 155.153 133.47 153.625 133.414 150.942C133.361 148.31 131.585 146.899 128.315 146.899C109.036 146.903 89.7583 146.903 70.4802 146.903ZM70.3115 216.74C89.6988 216.74 109.089 216.74 128.477 216.74C131.645 216.74 133.354 215.347 133.41 212.745C133.47 210.088 131.694 208.596 128.45 208.596C89.8377 208.593 51.2251 208.596 12.6159 208.6C11.9578 208.6 11.2866 208.604 10.6385 208.713C8.88259 209.017 7.58636 210.746 7.59959 212.683C7.60951 214.638 8.89913 216.338 10.6649 216.619C11.4222 216.74 12.2025 216.736 12.9697 216.736C32.0858 216.74 51.1987 216.74 70.3115 216.74ZM70.586 23.6516C51.3078 23.6516 32.0296 23.6516 12.7548 23.6589C11.9876 23.6589 11.2006 23.6516 10.4566 23.8307C8.74702 24.2401 7.57644 25.9288 7.59959 27.7893C7.62273 29.5987 8.72057 31.1887 10.3905 31.6018C11.237 31.8138 12.1364 31.8467 13.0094 31.8467C51.3442 31.8576 89.679 31.8576 128.014 31.8576C128.401 31.8576 128.784 31.8686 129.171 31.854C131.74 31.7516 133.394 30.1616 133.417 27.782C133.443 25.3294 131.734 23.7028 129.082 23.6553C128.642 23.6479 128.199 23.6553 127.759 23.6553C108.699 23.6516 89.6426 23.6516 70.586 23.6516ZM70.4239 93.4632C89.6459 93.4632 108.871 93.4632 128.093 93.4596C128.864 93.4596 129.644 93.4669 130.398 93.328C132.164 93.0026 133.44 91.2664 133.42 89.3364C133.4 87.4028 132.091 85.725 130.315 85.4436C129.611 85.3303 128.89 85.3157 128.176 85.3157C89.7286 85.3083 51.2846 85.3083 12.8374 85.3157C12.1232 85.3157 11.4023 85.3303 10.698 85.4436C8.92228 85.725 7.61281 87.3991 7.59297 89.3364C7.57313 91.2664 8.84953 93.0026 10.6153 93.328C11.3692 93.4669 12.1496 93.4596 12.9201 93.4596C32.0891 93.4632 51.2549 93.4632 70.4239 93.4632ZM101.682 16.257C106.517 16.257 111.196 16.257 116.047 16.257C116.047 14.0054 115.994 11.8927 116.067 9.78359C116.11 8.56274 115.69 8.2228 114.635 8.23742C110.683 8.28859 106.728 8.2557 102.774 8.27032C102.416 8.27032 102.063 8.41287 101.679 8.49694C101.682 11.0922 101.682 13.5704 101.682 16.257Z" fill="white"/>
<path d="M122.535 16.6006C125.59 16.6006 128.358 16.3777 131.079 16.6518C135.5 17.0977 139.108 21.0198 139.829 25.7497C140.573 30.6331 138.496 35.4507 134.492 37.6731C133.298 38.3347 132.997 39.095 133.004 40.4731C133.05 52.5939 133.043 64.7183 133.01 76.8391C133.007 78.0563 133.265 78.7399 134.349 79.3613C137.974 81.4301 139.931 84.8259 139.928 89.373C139.925 93.9969 137.931 97.3999 134.22 99.4761C133.271 100.006 133.007 100.613 133.01 101.72C133.04 114.086 133.04 126.452 133.01 138.818C133.007 139.881 133.324 140.397 134.184 140.89C137.864 142.992 139.921 146.355 139.928 150.986C139.934 155.69 137.848 159.031 134.138 161.275C133.615 161.593 133.076 162.511 133.073 163.154C133.01 175.582 133.033 188.006 133.01 200.434C133.007 201.458 133.252 202.031 134.154 202.532C138.516 204.956 140.751 210.018 139.772 214.964C138.731 220.22 134.683 223.915 129.654 223.959C120.508 224.032 111.358 223.985 102.211 223.985C72.2327 223.985 42.2573 223.988 12.2786 223.981C6.79936 223.981 2.95695 221.101 1.5053 215.943C0.0205882 210.665 2.13689 205.164 6.75307 202.576C7.67895 202.057 8.00301 201.494 7.9997 200.361C7.96333 187.995 7.96663 175.63 7.99639 163.264C7.9997 162.218 7.73186 161.659 6.84896 161.166C3.14213 159.093 1.10519 155.719 1.07874 151.092C1.05228 146.384 3.11898 142.963 6.88203 140.857C7.78807 140.349 7.99639 139.757 7.99639 138.741C7.96994 126.375 7.96663 114.009 8.00301 101.644C8.00631 100.5 7.64257 99.9622 6.73323 99.4432C3.09584 97.3743 1.12173 94.0261 1.08204 89.4826C1.04567 84.8551 3.0297 81.4338 6.71008 79.3174C7.70871 78.7435 8.00301 78.1294 7.9997 76.9488C7.96333 64.6452 7.99309 52.338 7.93687 40.0344C7.93357 39.3546 7.51031 38.3567 7.01099 38.0496C2.47087 35.2534 0.185924 30.3078 1.26391 25.3257C2.42127 19.9817 6.35626 16.5933 11.6338 16.4069C12.1827 16.3886 12.7349 16.3996 13.2871 16.3996C39.8467 16.3996 66.4096 16.3996 92.9691 16.3996C95.0987 16.3996 95.0987 16.3959 95.102 14.0164C95.102 13.1026 95.0788 12.1887 95.1086 11.2749C95.1582 9.63373 95.3037 8.157 93.2634 7.55754C91.9837 7.18105 91.5241 5.6093 91.7424 4.06313C91.9606 2.50599 92.8534 1.57756 94.1728 1.16451C94.6919 1.00368 95.264 1.01465 95.8129 1.01465C104.513 1.01099 113.219 1.02561 121.926 1.00003C123.46 0.996372 124.783 1.3619 125.6 2.91538C126.602 4.81611 125.782 7.33457 123.804 7.92307C122.657 8.26666 122.488 8.89171 122.518 9.98463C122.571 12.0425 122.535 14.0968 122.535 16.6006ZM126.38 39.1718C89.0275 39.1718 51.8766 39.1718 14.6627 39.1718C14.6627 52.1699 14.6627 65.04 14.6627 77.9503C51.9625 77.9503 89.1565 77.9503 126.38 77.9503C126.38 64.9779 126.38 52.1443 126.38 39.1718ZM14.6264 201.224C51.9857 201.224 89.1532 201.224 126.321 201.224C126.321 188.233 126.321 175.366 126.321 162.471C89.0209 162.471 51.8567 162.471 14.6264 162.471C14.6264 175.439 14.6264 188.273 14.6264 201.224ZM126.374 100.854C89.0176 100.854 51.86 100.854 14.6991 100.854C14.6991 113.841 14.6991 126.708 14.6991 139.549C51.9923 139.549 89.1466 139.549 126.374 139.549C126.374 126.591 126.374 113.772 126.374 100.854ZM70.4802 146.903C51.202 146.903 31.9205 146.899 12.6423 146.914C11.8256 146.914 10.9824 146.972 10.1954 147.203C8.64782 147.66 7.59959 149.279 7.59297 151.004C7.58636 152.722 8.63128 154.378 10.1689 154.827C11.0055 155.072 11.9049 155.142 12.7779 155.142C51.2813 155.156 89.7848 155.156 128.288 155.153C131.611 155.153 133.47 153.625 133.414 150.942C133.361 148.31 131.585 146.899 128.315 146.899C109.036 146.903 89.7583 146.903 70.4802 146.903ZM70.3115 216.74C89.6988 216.74 109.089 216.74 128.477 216.74C131.645 216.74 133.354 215.347 133.41 212.745C133.47 210.088 131.694 208.596 128.45 208.596C89.8377 208.593 51.2251 208.596 12.6159 208.6C11.9578 208.6 11.2866 208.604 10.6385 208.713C8.88259 209.017 7.58636 210.746 7.59959 212.683C7.60951 214.638 8.89913 216.338 10.6649 216.619C11.4222 216.74 12.2025 216.736 12.9697 216.736C32.0858 216.74 51.1987 216.74 70.3115 216.74ZM70.586 23.6516C51.3078 23.6516 32.0296 23.6516 12.7548 23.6589C11.9876 23.6589 11.2006 23.6516 10.4566 23.8307C8.74702 24.2401 7.57644 25.9288 7.59959 27.7893C7.62273 29.5987 8.72057 31.1887 10.3905 31.6018C11.237 31.8138 12.1364 31.8467 13.0094 31.8467C51.3442 31.8576 89.679 31.8576 128.014 31.8576C128.401 31.8576 128.784 31.8686 129.171 31.854C131.74 31.7516 133.394 30.1616 133.417 27.782C133.443 25.3294 131.734 23.7028 129.082 23.6553C128.642 23.6479 128.199 23.6553 127.759 23.6553C108.699 23.6516 89.6426 23.6516 70.586 23.6516ZM70.4239 93.4632C89.6459 93.4632 108.871 93.4632 128.093 93.4596C128.864 93.4596 129.644 93.4669 130.398 93.328C132.164 93.0026 133.44 91.2664 133.42 89.3364C133.4 87.4028 132.091 85.725 130.315 85.4436C129.611 85.3303 128.89 85.3157 128.176 85.3157C89.7286 85.3083 51.2846 85.3083 12.8374 85.3157C12.1232 85.3157 11.4023 85.3303 10.698 85.4436C8.92228 85.725 7.61281 87.3991 7.59297 89.3364C7.57313 91.2664 8.84953 93.0026 10.6153 93.328C11.3692 93.4669 12.1496 93.4596 12.9201 93.4596C32.0891 93.4632 51.2549 93.4632 70.4239 93.4632ZM101.682 16.257C106.517 16.257 111.196 16.257 116.047 16.257C116.047 14.0054 115.994 11.8927 116.067 9.78359C116.11 8.56274 115.69 8.2228 114.635 8.23742C110.683 8.28859 106.728 8.2557 102.774 8.27032C102.416 8.27032 102.063 8.41287 101.679 8.49694C101.682 11.0922 101.682 13.5704 101.682 16.257Z" stroke="white" stroke-width="2" mask="url(#path-1-outside-1)"/>
</svg>
