<svg width="22" height="21" viewBox="0 0 22 21" fill="none" xmlns="http://www.w3.org/2000/svg">
<circle cx="8.5" cy="8.5" r="8.5" fill="#F9E34A"/>
<path fill-rule="evenodd" clip-rule="evenodd" d="M9 3H17V1H19V3H20C20.5304 3 21.0391 3.21071 21.4142 3.58579C21.7893 3.96086 22 4.46957 22 5V19C22 19.5304 21.7893 20.0391 21.4142 20.4142C21.0391 20.7893 20.5304 21 20 21H6C5.46957 21 4.96086 20.7893 4.58579 20.4142C4.21071 20.0391 4 19.5304 4 19V5C4 4.46957 4.21071 3.96086 4.58579 3.58579C4.96086 3.21071 5.46957 3 6 3H7V1H9V3ZM6 7V19H20V7H6ZM8 10H10V12H8V10ZM12 10H14V12H12V10ZM16 10H18V12H16V10ZM16 14H18V16H16V14ZM12 14H14V16H12V14ZM8 14H10V16H8V14Z" fill="#44494A"/>
</svg>
