<svg width="13" height="13" viewBox="0 0 13 13" fill="none" xmlns="http://www.w3.org/2000/svg">
<rect width="13" height="13" rx="6.5" fill="#FF0000"/>
<path d="M7.29543 6.5L8.83526 4.96017C9.05491 4.74052 9.05491 4.38439 8.83526 4.16474C8.61559 3.94509 8.25949 3.94509 8.03983 4.16474L6.5 5.70457L4.96017 4.16474C4.74052 3.94509 4.38439 3.94509 4.16474 4.16474C3.94509 4.38439 3.94509 4.74052 4.16474 4.96017L5.70457 6.5L4.16474 8.03983C3.94509 8.25948 3.94509 8.61561 4.16474 8.83526C4.27457 8.94508 4.41851 9 4.56245 9C4.70639 9 4.85034 8.94509 4.96016 8.83526L6.5 7.29543L8.03983 8.83526C8.14966 8.94508 8.2936 9 8.43754 9C8.58148 9 8.72542 8.94509 8.83525 8.83526C9.0549 8.61561 9.0549 8.25948 8.83525 8.03983L7.29543 6.5Z" fill="white"/>
</svg>
