<svg width="21" height="21" viewBox="0 0 21 21" fill="none" xmlns="http://www.w3.org/2000/svg">
<path d="M19.6284 9.97023C19.7163 9.67726 19.7603 9.37453 19.7603 9.06691C19.7603 8.376 19.5332 7.71193 19.123 7.16994C19.2109 6.87697 19.2549 6.57424 19.2549 6.26662C19.2549 5.5757 19.0278 4.91164 18.6177 4.36965C18.7056 4.07668 18.7495 3.77395 18.7495 3.46633C18.7495 2.20656 18 1.07131 16.8379 0.575704C16.6336 0.487639 16.4134 0.442754 16.1909 0.443868H1.51562C1.0835 0.443868 0.734375 0.792989 0.734375 1.22512V10.1118C0.734375 10.544 1.0835 10.8931 1.51562 10.8931H4.67236L6.76709 18.481C7.104 19.7041 8.22705 20.5586 9.49658 20.5586C10.2217 20.5586 10.8979 20.2705 11.3984 19.7432C11.8989 19.2183 12.1553 18.5298 12.1187 17.8047L11.9722 14.8042H17.8291C18.1245 14.8042 18.4126 14.7261 18.6665 14.5772C19.6528 14.0034 20.2656 12.9634 20.2656 11.8672C20.2656 11.1763 20.0386 10.5122 19.6284 9.97023ZM2.49219 9.13283V2.19924H4.46973V9.13283H2.49219ZM17.8047 13.0488H10.1289L10.3633 17.8926C10.3779 18.1831 10.2485 18.4566 10.0068 18.6372C9.85791 18.7471 9.6748 18.8032 9.4917 18.8008C9.25777 18.7985 9.03088 18.7204 8.84511 18.5782C8.65934 18.4361 8.52471 18.2374 8.46143 18.0122L6.03223 9.21096V2.19924H16.1738C16.4179 2.30861 16.6251 2.48614 16.7706 2.7105C16.9162 2.93485 16.9938 3.19647 16.9941 3.46389C16.9941 3.7007 16.938 3.92531 16.8257 4.13039L16.4863 4.75051L17.021 5.21438C17.1715 5.34472 17.2921 5.50595 17.3747 5.68711C17.4573 5.86827 17.4998 6.06509 17.4995 6.26418C17.4995 6.501 17.4434 6.7256 17.3311 6.93068L16.9917 7.5508L17.5264 8.01467C17.6769 8.14501 17.7975 8.30625 17.8801 8.4874C17.9626 8.66856 18.0052 8.86538 18.0049 9.06447C18.0049 9.30129 17.9487 9.5259 17.8364 9.73098L17.4946 10.3535L18.0293 10.8174C18.1798 10.9477 18.3004 11.109 18.383 11.2901C18.4656 11.4713 18.5081 11.6681 18.5078 11.8672C18.5078 12.3335 18.2393 12.7827 17.8047 13.0488Z" fill="#D3D3D3"/>
</svg>
