<svg width="16" height="16" viewBox="0 0 16 16" fill="none" xmlns="http://www.w3.org/2000/svg">
<path d="M15.2219 0.778095C15.4686 1.02477 15.6643 1.31761 15.7978 1.63991C15.9313 1.96222 16 2.30766 16 2.65651C16 3.00537 15.9313 3.35081 15.7978 3.67311C15.6643 3.99541 15.4686 4.28826 15.2219 4.53493L5.41087 14.3457C4.98529 14.7713 4.45207 15.0731 3.86822 15.219L0.825424 15.9801C0.714136 16.008 0.597524 16.0065 0.486954 15.9759C0.376384 15.9453 0.275627 15.8866 0.194504 15.8055C0.11338 15.7244 0.0546567 15.6236 0.0240569 15.513C-0.00654284 15.4025 -0.00797549 15.2858 0.0198989 15.1745L0.78093 12.1316C0.926839 11.5477 1.22868 11.0145 1.65419 10.5889L11.4653 0.778095C11.7119 0.531409 12.0048 0.335727 12.327 0.202221C12.6493 0.0687147 12.9948 0 13.3436 0C13.6924 0 14.0379 0.0687147 14.3602 0.202221C14.6824 0.335727 14.9753 0.531409 15.2219 0.778095ZM10.5263 3.59655L2.59386 11.5279C2.33853 11.7833 2.15743 12.1033 2.0699 12.4537L1.57782 14.4228L3.54681 13.9307C3.89724 13.843 4.21723 13.6616 4.47253 13.406L12.4036 5.47464L10.5256 3.59655H10.5263ZM12.4036 1.71714L11.4646 2.65684L13.3426 4.53493L14.2829 3.59589C14.5321 3.34666 14.672 3.00867 14.6719 2.65628C14.6719 2.30388 14.5318 1.96594 14.2826 1.71681C14.0334 1.46767 13.6954 1.32774 13.343 1.3278C12.9906 1.32786 12.6527 1.46791 12.4036 1.71714Z" fill="#E1E1E1"/>
</svg>
