<svg width="30" height="22" viewBox="0 0 30 22" fill="none" xmlns="http://www.w3.org/2000/svg">
<g clip-path="url(#clip0_223_1699)">
<path d="M0 7.46964C0.183105 7.311 0.344238 7.10189 0.556641 7.00094C5.20752 4.70792 9.86572 2.42211 14.5166 0.121883C14.8535 -0.0439643 15.1465 -0.0439643 15.4834 0.121883C20.1343 2.42211 24.7925 4.70792 29.4434 7.00094C29.6558 7.1091 29.8169 7.311 30 7.46964C30 7.58501 30 7.70038 30 7.81575C29.8169 7.97439 29.6484 8.16908 29.4434 8.28445C28.9746 8.54404 28.4912 8.76757 28.0078 8.99832C27.8687 9.06321 27.8101 9.14253 27.8101 9.30117C27.8174 10.8659 27.8101 12.4306 27.8174 13.9954C27.8174 14.0819 27.8979 14.2189 27.9712 14.255C28.6816 14.6011 29.0845 15.1563 29.1138 15.9351C29.1431 16.7138 28.7769 17.2907 28.0957 17.6873C28.0811 17.6945 28.0664 17.7161 28.0298 17.745C28.0811 17.8892 28.1396 18.055 28.1982 18.2137C28.5571 19.1438 28.9233 20.074 29.2822 21.0042C29.5239 21.6315 29.2676 21.9993 28.5864 21.9993C27.6416 21.9993 26.6895 21.9993 25.7446 21.9993C25.1074 21.9993 24.8438 21.6243 25.0708 21.0331C25.4517 20.038 25.8398 19.0429 26.2207 18.0478C26.2573 17.9469 26.2939 17.8531 26.3306 17.7377C26.272 17.6945 26.2134 17.6584 26.1621 17.6224C25.5103 17.2041 25.188 16.6129 25.2539 15.8413C25.3125 15.1202 25.6934 14.6083 26.3452 14.2838C26.4771 14.2189 26.5576 14.1612 26.5576 13.9954C26.5503 12.6325 26.5503 11.2697 26.5503 9.90687C26.5503 9.86361 26.543 9.81313 26.5356 9.7266C26.001 9.98619 25.4883 10.2314 24.9829 10.4982C24.9243 10.527 24.9023 10.6784 24.9023 10.7722C24.895 12.1061 24.8584 13.4401 24.9097 14.7741C24.9609 16.274 24.2651 17.3628 23.1006 18.2209C21.7383 19.2232 20.1636 19.7568 18.5083 20.0596C15.769 20.5644 13.0298 20.5139 10.3345 19.7928C8.91357 19.4106 7.57324 18.841 6.45996 17.8603C5.56641 17.0671 5.07568 16.1081 5.09766 14.8967C5.12695 13.5267 5.09766 12.1494 5.1123 10.7794C5.1123 10.5847 5.05371 10.4909 4.87793 10.4116C3.42773 9.71218 1.99219 9.01274 0.556641 8.29166C0.344238 8.1835 0.183105 7.9816 0 7.82296C0 7.70038 0 7.58501 0 7.46964ZM27.9565 7.6427C27.8467 7.58501 27.7954 7.55617 27.7441 7.52732C23.5693 5.47226 19.3872 3.42441 15.2197 1.36213C15.0293 1.26839 14.8975 1.31166 14.7363 1.39097C10.6055 3.42441 6.48193 5.45063 2.3584 7.48406C2.27051 7.52732 2.18262 7.58501 2.05811 7.64991C2.16797 7.70759 2.24121 7.75807 2.31445 7.79412C6.46729 9.83476 10.6128 11.8754 14.7656 13.9233C14.9414 14.0098 15.0806 13.9954 15.2563 13.916C18.3691 12.3802 21.4819 10.8515 24.5947 9.3228C24.6753 9.28675 24.7485 9.24348 24.8291 9.20022C24.5361 9.12811 24.2651 9.09927 23.9941 9.07763C21.9214 8.89016 19.856 8.70989 17.7832 8.52241C16.8677 8.44309 15.9521 8.37098 15.0439 8.27724C14.6045 8.23398 14.3481 7.94555 14.3921 7.58501C14.436 7.23168 14.7363 7.02257 15.1611 7.05862C16.6406 7.18842 18.1128 7.31821 19.5923 7.44801C21.9141 7.65712 24.2432 7.8446 26.5576 8.08255C27.1069 8.12582 27.4805 7.87344 27.9565 7.6427ZM23.6499 11.1471C23.4961 11.2192 23.4009 11.2697 23.3057 11.313C20.6982 12.5965 18.0908 13.8728 15.4834 15.1635C15.1465 15.3294 14.8535 15.3294 14.5166 15.1635C11.9019 13.8656 9.28711 12.5893 6.67236 11.3058C6.58447 11.2625 6.48926 11.2264 6.3501 11.1688C6.3501 11.3058 6.3501 11.3995 6.3501 11.4932C6.3501 12.6542 6.36475 13.8151 6.34277 14.976C6.33545 15.6971 6.59912 16.2812 7.09717 16.7787C7.96143 17.6368 9.03809 18.1199 10.1807 18.4732C12.7368 19.2592 15.3369 19.353 17.9663 18.9203C19.4604 18.6751 20.8887 18.2353 22.1558 17.3844C23.1372 16.7282 23.7378 15.899 23.6572 14.6515C23.5913 13.606 23.6426 12.5604 23.6426 11.5149C23.6499 11.4067 23.6499 11.3058 23.6499 11.1471ZM27.1948 16.685C27.561 16.6778 27.8833 16.3461 27.8687 15.9855C27.854 15.6178 27.5244 15.3149 27.1582 15.3294C26.7993 15.3438 26.4917 15.661 26.4917 16.0072C26.499 16.3677 26.8286 16.6922 27.1948 16.685ZM27.2168 19.1222C27.1948 19.1222 27.1729 19.1222 27.1509 19.1222C26.9458 19.663 26.7334 20.2038 26.521 20.7663C26.9824 20.7663 27.3999 20.7663 27.854 20.7663C27.6343 20.2038 27.4219 19.663 27.2168 19.1222Z" fill="black"/>
</g>
<defs>
<clipPath id="clip0_223_1699">
<rect width="30" height="22" fill="white"/>
</clipPath>
</defs>
</svg>
