<svg width="25" height="29" viewBox="0 0 25 29" fill="none" xmlns="http://www.w3.org/2000/svg">
<g clip-path="url(#clip0_219_1672)">
<path d="M22.288 18.7793C22.4103 20.3486 22.135 21.7526 21.0135 22.8779C19.9124 23.9929 18.5359 24.282 16.9964 24.1375C16.9964 24.3543 16.9964 24.5194 16.9964 24.6846C16.9964 25.8822 16.9964 27.0901 16.9964 28.2877C16.9964 28.8245 16.8129 29.0104 16.2929 29.0207C13.1016 29.0207 9.91034 29.0207 6.71906 29.0207C6.19908 29.0207 6.01555 28.8349 6.01555 28.2877C6.01555 27.2656 6.01555 26.2435 6.01555 25.2318C6.00536 23.0844 5.26107 21.2364 3.72151 19.7704C1.94745 18.0773 0.744348 16.0538 0.244755 13.638C-1.00932 7.63976 2.83448 1.60025 8.70724 0.278779C15.0286 -1.14593 21.1563 3.07657 22.1758 9.57034C22.2064 9.77682 22.2574 9.9833 22.2472 10.1795C22.2064 10.8712 22.4919 11.4493 22.7876 12.0378C23.4401 13.3489 24.0315 14.691 24.735 15.9815C25.4997 17.3753 24.5718 18.9238 22.9915 18.7793C22.7774 18.7587 22.5633 18.7793 22.288 18.7793ZM7.07591 27.885C10.0531 27.885 12.9793 27.885 15.9258 27.885C15.9258 26.512 15.9258 25.1698 15.9258 23.8277C15.9258 23.2393 16.089 23.0741 16.6803 23.0741C17.1799 23.0638 17.6693 23.0844 18.1689 23.0638C19.7798 22.9812 21.0951 21.67 21.2072 20.0388C21.248 19.471 21.2174 18.9032 21.2378 18.3354C21.248 17.8811 21.4315 17.7056 21.87 17.7056C22.2676 17.6953 22.655 17.7056 23.0527 17.7056C23.8581 17.7056 24.1334 17.2514 23.7664 16.5184C23.1138 15.1866 22.4715 13.8548 21.8088 12.5436C21.4519 11.8313 21.1053 11.1189 21.1665 10.2724C21.1868 10.0762 21.1257 9.85941 21.0951 9.66326C19.9532 2.72556 12.5918 -0.97042 6.45397 2.28163C2.72233 4.26383 0.560824 8.55859 1.18277 12.7604C1.52942 15.1866 2.62037 17.2101 4.38423 18.8929C6.19908 20.6273 7.08611 22.785 7.08611 25.3144C7.07591 26.1609 7.07591 27.0075 7.07591 27.885Z" fill="black"/>
<path d="M7.37153 13.5657C7.50407 12.7604 7.64681 11.8623 7.82014 10.9847C7.88131 10.6647 7.84053 10.4375 7.58564 10.2001C6.9637 9.63228 6.36215 9.03349 5.78099 8.41405C5.63825 8.25919 5.52609 7.99077 5.53629 7.78429C5.54648 7.49522 5.82177 7.4023 6.09706 7.361C6.9433 7.24744 7.77936 7.11323 8.62561 6.99967C8.91109 6.95837 9.09461 6.86545 9.22716 6.57638C9.58401 5.78144 9.97145 4.99682 10.3793 4.22252C10.4812 4.03669 10.7259 3.81989 10.9095 3.81989C11.093 3.81989 11.3377 4.02636 11.4396 4.2122C11.8577 5.00714 12.2451 5.82273 12.6223 6.63833C12.7243 6.85513 12.8467 6.94805 13.071 6.97902C13.8662 7.08226 14.6513 7.20614 15.4466 7.33003C15.5587 7.35068 15.6913 7.34036 15.783 7.39198C15.9666 7.50554 16.2113 7.6191 16.2724 7.79461C16.3234 7.94947 16.2214 8.22822 16.0889 8.36243C15.467 9.01284 14.8348 9.6426 14.1823 10.262C13.9784 10.4582 13.9274 10.644 13.9784 10.9124C14.1313 11.7384 14.2741 12.5643 14.4066 13.3902C14.4372 13.5554 14.4576 13.7309 14.4168 13.8857C14.3454 14.2471 13.9784 14.3813 13.6011 14.1851C12.7855 13.7619 11.98 13.3283 11.1745 12.8843C10.991 12.7811 10.8381 12.7811 10.6546 12.8843C9.8491 13.3283 9.04363 13.7619 8.22797 14.1748C7.73857 14.4123 7.35114 14.1645 7.37153 13.5657ZM8.59502 12.7398C9.19657 12.4197 9.73694 12.172 10.2467 11.8519C10.6953 11.5629 11.0828 11.5525 11.5416 11.8416C12.0514 12.1616 12.602 12.4094 13.1933 12.7295C13.071 11.9861 12.9792 11.3048 12.8365 10.644C12.7651 10.2827 12.8568 10.0349 13.1117 9.78713C13.5909 9.31223 14.0396 8.80636 14.529 8.29016C13.907 8.19724 13.2749 8.094 12.6325 8.02174C12.2247 7.98044 11.9596 7.81526 11.7863 7.42295C11.5212 6.81383 11.2153 6.23569 10.8891 5.56463C10.675 6.00856 10.5016 6.3699 10.3181 6.73124C9.6044 8.14562 10.002 7.85655 8.46247 8.10433C8.05464 8.16627 7.65701 8.22822 7.30016 8.29016C7.74877 8.78571 8.17699 9.28126 8.6358 9.73551C8.92128 10.0143 9.02324 10.293 8.94167 10.6956C8.80913 11.3564 8.71737 12.0171 8.59502 12.7398Z" fill="black"/>
</g>
<defs>
<clipPath id="clip0_219_1672">
<rect width="25" height="29" fill="white"/>
</clipPath>
</defs>
</svg>
