<svg width="26" height="25" viewBox="0 0 26 25" fill="none" xmlns="http://www.w3.org/2000/svg">
<path d="M0 0.504168C0.176363 0.121 0.481607 0 0.895382 0C3.62223 0.0134445 6.34229 0.00672224 9.06914 0.00672224C9.15053 0.00672224 9.23872 0 9.32011 0.0134445C9.53718 0.0403334 9.68641 0.201667 9.67962 0.396612C9.67284 0.598279 9.52361 0.746168 9.29977 0.759613C9.21837 0.766335 9.13019 0.759613 9.04879 0.759613C6.38977 0.759613 3.73754 0.759613 1.07853 0.759613C0.976781 0.759613 0.881816 0.759613 0.766501 0.759613C0.766501 1.23017 0.766501 1.67384 0.766501 2.13095C8.91312 2.13095 17.053 2.13095 25.2132 2.13095C25.2132 1.68056 25.2132 1.24361 25.2132 0.759613C25.1114 0.759613 25.0097 0.759613 24.9011 0.759613C20.3089 0.759613 15.7099 0.759613 11.1177 0.759613C11.0227 0.759613 10.9345 0.759613 10.8396 0.759613C10.6021 0.746168 10.4461 0.598279 10.4529 0.383168C10.4529 0.1815 10.5954 0.0336112 10.8192 0.00672224C10.8938 0 10.9684 0.00672224 11.0498 0.00672224C15.737 0.00672224 20.4242 0.00672224 25.1114 0.00672224C25.7626 0.00672224 25.9932 0.235278 25.9932 0.887335C25.9932 1.30411 25.9932 1.72761 25.9932 2.14439C25.9932 2.64184 25.7287 2.89728 25.2199 2.91073C25.1046 2.91073 24.9893 2.91073 24.8401 2.91073C24.8401 3.04517 24.8401 3.15273 24.8401 3.26029C24.8401 8.13391 24.8401 13.0075 24.8401 17.8812C24.8401 18.2038 24.8129 18.5198 24.623 18.7954C24.3517 19.192 23.9854 19.4138 23.497 19.4138C22.7712 19.4205 22.0386 19.4205 21.3128 19.4138C21.0347 19.4138 20.8651 19.2727 20.8651 19.0441C20.8651 18.8088 21.0347 18.6609 21.3264 18.6609C22.0047 18.6542 22.683 18.6609 23.3546 18.6609C23.8497 18.6609 24.0736 18.4458 24.0736 17.9618C24.0736 13.0143 24.0736 8.06668 24.0736 3.1124C24.0736 3.05862 24.0668 2.99812 24.06 2.92417C16.6731 2.92417 9.29977 2.92417 1.8993 2.92417C1.8993 3.03173 1.8993 3.13256 1.8993 3.2334C1.8993 8.10702 1.8993 12.9806 1.8993 17.8543C1.8993 18.4794 2.08244 18.6609 2.71328 18.6609C8.29585 18.6609 13.8852 18.6609 19.4678 18.6609C19.5831 18.6609 19.7052 18.6609 19.8205 18.6878C20.0104 18.7349 20.1054 18.876 20.0918 19.0643C20.0783 19.2659 19.9562 19.3869 19.7527 19.4071C19.6713 19.4138 19.5831 19.4138 19.5017 19.4138C17.5549 19.4138 15.6081 19.4205 13.6614 19.4071C13.4239 19.4071 13.3629 19.4743 13.3697 19.7029C13.3833 20.6037 13.3765 21.4977 13.3697 22.3985C13.3697 22.5666 13.4036 22.6607 13.5732 22.7481C14.0684 23.0035 14.299 23.5614 14.1633 24.0992C14.0277 24.6101 13.546 24.9866 13.0102 24.9933C12.4675 25 11.9656 24.6168 11.8299 24.0925C11.6942 23.5547 11.9249 23.0102 12.42 22.7481C12.5761 22.6674 12.6167 22.58 12.6167 22.4187C12.61 21.5044 12.6167 20.5902 12.61 19.6693C12.61 19.5953 12.6032 19.5214 12.5964 19.4138C12.4743 19.4138 12.3726 19.4138 12.264 19.4138C9.042 19.4138 5.8132 19.4138 2.59118 19.4138C1.87895 19.4138 1.34986 19.0374 1.19384 18.4055C1.14636 18.224 1.14636 18.0223 1.14636 17.8341C1.14636 12.9806 1.14636 8.12046 1.14636 3.26701C1.14636 3.15945 1.14636 3.0519 1.14636 2.91073C0.664753 2.94434 0.217062 2.92417 0 2.42001C0 1.78139 0 1.14278 0 0.504168ZM12.9898 23.3531C12.7592 23.3598 12.5557 23.5614 12.5557 23.7967C12.5557 24.0387 12.7728 24.2471 13.0102 24.2404C13.2544 24.2337 13.4579 24.0118 13.4443 23.7766C13.4307 23.5413 13.2205 23.3463 12.9898 23.3531Z" fill="black"/>
<path d="M18.4978 4.63159C19.3864 4.63159 20.275 4.63159 21.1636 4.63159C21.7063 4.63159 21.9437 4.86015 21.9437 5.39121C21.9437 6.98438 21.9437 8.58427 21.9437 10.1774C21.9437 10.7085 21.6995 10.9438 21.1636 10.9438C19.3729 10.9438 17.5821 10.9438 15.7846 10.9438C15.2623 10.9438 15.0181 10.7018 15.0181 10.1976C15.0181 8.59099 15.0181 6.9911 15.0181 5.38448C15.0181 4.87359 15.2623 4.63159 15.7846 4.63159C16.6867 4.63159 17.5957 4.63159 18.4978 4.63159ZM15.7914 10.1707C17.6025 10.1707 19.3797 10.1707 21.1636 10.1707C21.1636 8.57083 21.1636 6.9911 21.1636 5.41137C19.3593 5.41137 17.5753 5.41137 15.7914 5.41137C15.7914 7.00454 15.7914 8.58427 15.7914 10.1707Z" fill="black"/>
<path d="M7.81418 7.02472C6.7153 7.02472 5.61642 7.02472 4.51754 7.02472C3.91384 7.02472 3.69678 6.80961 3.69678 6.20461C3.69678 5.92227 3.69678 5.63322 3.69678 5.35088C3.69678 4.73244 3.91384 4.52405 4.54468 4.52405C5.27048 4.52405 6.00306 4.52405 6.72887 4.52405C8.20082 4.52405 9.67278 4.52405 11.1447 4.52405C11.7824 4.52405 11.9926 4.73916 11.9926 5.37105C11.9926 5.67355 11.9926 5.97605 11.9926 6.27855C11.9926 6.776 11.7484 7.02472 11.2465 7.03144C10.1001 7.02472 8.95376 7.02472 7.81418 7.02472ZM11.2126 5.29038C8.95376 5.29038 6.7153 5.29038 4.47006 5.29038C4.47006 5.61977 4.47006 5.93572 4.47006 6.25166C6.72887 6.25166 8.96054 6.25166 11.2126 6.25166C11.2126 5.929 11.2126 5.61977 11.2126 5.29038Z" fill="black"/>
<path d="M7.82105 9.02797C6.72895 9.02797 5.64364 9.02797 4.55154 9.02797C4.47693 9.02797 4.37518 9.05486 4.3277 9.01452C4.21238 8.92714 4.06994 8.8263 4.02245 8.69858C3.96141 8.52381 4.06994 8.3692 4.25308 8.3087C4.34127 8.28181 4.43623 8.27509 4.52441 8.27509C6.73574 8.27509 8.95385 8.27509 11.1652 8.27509C11.2398 8.27509 11.3212 8.27509 11.389 8.29525C11.5857 8.34903 11.6875 8.4902 11.6671 8.69186C11.6468 8.8868 11.5247 9.0078 11.3144 9.02797C11.2398 9.03469 11.1652 9.02797 11.0838 9.02797C9.99846 9.02797 8.91315 9.02797 7.82105 9.02797Z" fill="black"/>
<path d="M7.84129 10.3254C8.91982 10.3254 10.0051 10.3254 11.0837 10.3254C11.1651 10.3254 11.2532 10.3186 11.3346 10.3321C11.5314 10.359 11.6399 10.48 11.6602 10.6615C11.6806 10.8497 11.5856 10.9909 11.4025 11.0446C11.3211 11.0715 11.2397 11.0783 11.1515 11.0783C8.94017 11.0783 6.72206 11.0783 4.51074 11.0783C4.42256 11.0783 4.32081 11.0715 4.23941 11.0446C4.05627 10.9841 3.94773 10.8295 4.00878 10.6548C4.05627 10.527 4.19193 10.4262 4.31403 10.3388C4.36829 10.2985 4.47682 10.3254 4.56501 10.3254C5.66389 10.3254 6.75598 10.3254 7.84129 10.3254Z" fill="black"/>
<path d="M7.84134 13.115C6.7289 13.115 5.60967 13.1218 4.49723 13.1083C4.35478 13.1083 4.17164 13.0411 4.08346 12.9403C3.90709 12.7588 4.02919 12.4562 4.28695 12.3823C4.38192 12.3554 4.48366 12.3554 4.58541 12.3554C6.75603 12.3554 8.92665 12.3554 11.0973 12.3554C11.1448 12.3554 11.199 12.3554 11.2465 12.3554C11.5111 12.3689 11.6874 12.5302 11.6738 12.752C11.6671 12.9671 11.4975 13.1083 11.2397 13.1083C10.1069 13.115 8.97414 13.115 7.84134 13.115Z" fill="black"/>
<path d="M7.8277 15.1654C6.73561 15.1654 5.6503 15.1654 4.5582 15.1654C4.44967 15.1654 4.30722 15.1788 4.23939 15.1183C4.13765 15.0242 4.01555 14.8629 4.02911 14.7419C4.04268 14.6209 4.20548 14.5066 4.32079 14.4259C4.37506 14.3856 4.48359 14.4125 4.57177 14.4125C6.74918 14.4125 8.93336 14.4125 11.1108 14.4125C11.1786 14.4125 11.2464 14.4125 11.3143 14.4125C11.5313 14.4326 11.6602 14.5604 11.6738 14.7687C11.6873 14.9839 11.5585 15.1116 11.355 15.1586C11.2803 15.1721 11.2057 15.1654 11.1243 15.1654C10.0187 15.1654 8.9198 15.1654 7.8277 15.1654Z" fill="black"/>
<path d="M7.84145 17.2022C6.74936 17.2022 5.65726 17.2022 4.56517 17.2022C4.48377 17.2022 4.37524 17.2291 4.31419 17.1888C4.19888 17.1014 4.05643 16.9939 4.01573 16.8728C3.95468 16.6981 4.07 16.5502 4.25314 16.483C4.32776 16.4561 4.41594 16.4493 4.50412 16.4493C6.72901 16.4493 8.9539 16.4493 11.1788 16.4493C11.2466 16.4493 11.3145 16.4561 11.3823 16.4695C11.579 16.5233 11.6875 16.6577 11.6672 16.8594C11.6468 17.0544 11.5315 17.1821 11.3212 17.1955C11.2466 17.2022 11.172 17.2022 11.0906 17.2022C10.0121 17.2022 8.92676 17.2022 7.84145 17.2022Z" fill="black"/>
<path d="M18.8506 12.6647C20.0173 12.6849 21.0958 13.1017 21.9844 13.9621C22.0862 14.063 22.1608 14.2646 22.1404 14.3991C22.0862 14.7016 21.7402 14.7621 21.4892 14.5201C20.9941 14.0562 20.4311 13.7201 19.7663 13.5588C18.4097 13.2294 17.209 13.5252 16.1576 14.4394C15.8456 14.7083 15.6421 14.7486 15.4658 14.5402C15.303 14.352 15.364 14.1369 15.6489 13.8747C16.4968 13.095 17.6296 12.658 18.8506 12.6647Z" fill="black"/>
<path d="M18.7556 14.1368C19.556 14.1301 20.3158 14.4057 20.9466 14.9973C21.1569 15.1922 21.184 15.4275 21.0212 15.5888C20.8652 15.7502 20.6481 15.7367 20.4379 15.5552C19.3865 14.6679 18.1587 14.6679 17.1073 15.562C16.897 15.7435 16.6732 15.7502 16.524 15.5888C16.3612 15.4208 16.3883 15.2057 16.5918 15.0175C17.1751 14.4528 17.8806 14.1704 18.7556 14.1368Z" fill="black"/>
<path d="M18.8302 15.5754C19.2304 15.5822 19.6239 15.7368 19.9495 16.046C20.1326 16.2208 20.1462 16.4426 19.9969 16.6039C19.8545 16.7585 19.6442 16.7653 19.4543 16.6174C18.9455 16.2342 18.5928 16.2342 18.0841 16.6174C17.8874 16.7653 17.6839 16.7585 17.5414 16.6039C17.3922 16.4426 17.4057 16.214 17.5889 16.046C17.928 15.73 18.3283 15.5754 18.8302 15.5754Z" fill="black"/>
</svg>
