<svg width="26" height="28" viewBox="0 0 26 28" fill="none" xmlns="http://www.w3.org/2000/svg">
<g clip-path="url(#clip0_219_1666)">
<path d="M3.94662 28C3.67569 27.8688 3.55854 27.6573 3.49996 27.3584C3.17777 25.6959 2.84095 24.0407 2.50412 22.3782C2.48947 22.3125 2.47483 22.2542 2.45286 22.1813C2.27713 22.1594 2.09407 22.1594 1.91833 22.123C0.863914 21.9115 0.10239 21.0875 0.0364892 19.9938C-0.0147672 19.1115 -0.0147672 18.2219 0.0364892 17.3469C0.109713 16.1657 0.951782 15.3271 2.13068 15.1886C2.21123 15.1813 2.29177 15.1667 2.38696 15.1521C2.38696 14.9042 2.37964 14.6563 2.38696 14.4157C2.40893 13.3438 2.39428 12.2646 2.47483 11.1928C2.54805 10.2084 2.96543 9.33338 3.60247 8.57505C3.71963 8.4365 3.74892 8.31984 3.68302 8.13755C3.40477 7.37192 3.70498 6.54796 4.39328 6.11046C5.07426 5.68026 5.96026 5.76775 6.53873 6.32192C7.13184 6.88338 7.249 7.78025 6.83162 8.48025C6.42157 9.17296 5.59415 9.4938 4.81798 9.25317C4.63492 9.19484 4.54705 9.2313 4.43722 9.37713C3.95394 10.0115 3.63176 10.7188 3.60247 11.5063C3.55854 12.7167 3.58783 13.9198 3.58783 15.1521C3.9393 15.1521 4.29809 15.1521 4.68618 15.1521C4.68618 14.8459 4.68618 14.5615 4.68618 14.2698C4.67885 12.7094 5.39644 11.6011 6.78769 10.9084C8.41325 10.1063 10.112 9.54484 11.9207 9.38442C13.6853 9.2313 15.3988 9.50109 17.0536 10.1136C17.7566 10.3688 18.4449 10.6605 19.1112 11.0032C20.3413 11.6375 20.9857 12.6657 21.037 14.0511C21.0516 14.4157 21.037 14.773 21.037 15.1521C21.447 15.1521 21.8131 15.1521 22.1793 15.1521C22.1939 15.1303 22.2159 15.1157 22.2159 15.1011C22.2012 13.8615 22.2232 12.6219 22.1646 11.3896C22.128 10.6386 21.7985 9.96775 21.3372 9.36984C21.2347 9.23859 21.1614 9.18755 20.9784 9.24588C19.9825 9.56671 18.9501 8.9615 18.7378 7.94067C18.5327 6.97088 19.2283 5.97921 20.1949 5.85526C21.2566 5.72401 22.1719 6.48234 22.2012 7.53234C22.2085 7.72192 22.1793 7.9188 22.1134 8.0938C22.0328 8.29796 22.0694 8.4365 22.2012 8.60421C22.9335 9.4938 23.3215 10.5292 23.3655 11.6667C23.4094 12.7678 23.3801 13.8688 23.3801 14.9698C23.3801 15.0209 23.3801 15.0792 23.3801 15.1521C23.5632 15.1813 23.7316 15.1959 23.9 15.2396C24.8739 15.473 25.6134 16.2459 25.6793 17.2448C25.7379 18.1782 25.7526 19.1261 25.6867 20.0594C25.6061 21.2625 24.6762 22.1011 23.4607 22.1667C23.4094 22.1667 23.3508 22.174 23.2703 22.1813C23.1385 22.823 23.014 23.4646 22.8822 24.099C22.6625 25.2146 22.4355 26.3303 22.2159 27.4459C22.1646 27.7084 22.0108 27.8834 21.7838 28C21.674 28 21.5642 28 21.4543 28C21.0516 27.7448 20.9857 27.5917 21.0809 27.1178C21.2932 26.075 21.5056 25.0323 21.7106 23.9896C21.8278 23.3917 21.9449 22.8011 22.0694 22.1813C15.9113 22.1813 9.78253 22.1813 3.6464 22.1813C3.65373 22.2542 3.65373 22.3053 3.66105 22.3563C3.97591 23.924 4.29077 25.4917 4.60563 27.0667C4.70814 27.5917 4.65689 27.7448 4.23951 28.0073C4.16629 28 4.05646 28 3.94662 28ZM12.8872 16.3407C9.41641 16.3407 5.94562 16.3407 2.47483 16.3407C1.66205 16.3407 1.20074 16.8 1.20074 17.6094C1.20074 18.3167 1.20074 19.0313 1.20074 19.7386C1.20806 20.5261 1.67669 21 2.46018 21C9.40909 21 16.358 21 23.3069 21C24.0904 21 24.5663 20.5261 24.5663 19.7386C24.5737 19.0532 24.537 18.3678 24.5737 17.6896C24.6176 16.8657 24.0464 16.3188 23.2044 16.3261C19.7702 16.3553 16.3287 16.3407 12.8872 16.3407ZM5.85043 15.1448C10.566 15.1448 15.223 15.1448 19.902 15.1448C19.902 14.7803 19.9093 14.4375 19.902 14.0875C19.8727 13.2344 19.5139 12.5344 18.7597 12.1261C17.0024 11.1636 15.1278 10.5584 13.1069 10.5073C10.9321 10.4563 8.93314 11.098 7.03665 12.1042C6.41425 12.4323 6.02617 12.9792 5.92365 13.6792C5.85775 14.1532 5.8724 14.6344 5.85043 15.1448ZM21.0589 7.59067C21.0589 7.26255 20.7953 7.00005 20.4731 7.00734C20.1656 7.01463 19.902 7.27713 19.902 7.58338C19.902 7.89692 20.151 8.15213 20.4658 8.16671C20.8027 8.16671 21.0589 7.9188 21.0589 7.59067ZM5.34519 8.15942C5.66005 8.15213 5.91633 7.89692 5.92365 7.59067C5.92365 7.26984 5.65273 7.00005 5.33054 7.00734C5.01568 7.01463 4.76672 7.26984 4.7594 7.58338C4.75208 7.9115 5.00836 8.15942 5.34519 8.15942Z" fill="black"/>
<path d="M13.378 0C13.5537 0.04375 13.7295 0.0802084 13.9052 0.123958C15.7724 0.605209 17.1124 2.40625 16.9806 4.26563C16.8341 6.3073 15.355 7.89688 13.3853 8.13751C11.2033 8.40001 9.16765 6.86146 8.84546 4.70313C8.51596 2.48646 10.0244 0.415625 12.2211 0.0510417C12.2796 0.04375 12.3382 0.0145833 12.3968 0C12.719 0 13.0485 0 13.378 0ZM15.8017 4.09063C15.8017 2.47917 14.491 1.16667 12.8801 1.16667C11.2765 1.16667 9.98043 2.46459 9.96578 4.06875C9.95846 5.68021 11.2618 6.99272 12.8727 7.00001C14.4837 7.0073 15.7944 5.70209 15.8017 4.09063Z" fill="black"/>
</g>
<defs>
<clipPath id="clip0_219_1666">
<rect width="25.76" height="28" fill="white"/>
</clipPath>
</defs>
</svg>
