<svg width="15" height="15" viewBox="0 0 15 15" fill="none" xmlns="http://www.w3.org/2000/svg">
<path fill-rule="evenodd" clip-rule="evenodd" d="M14.347 1.28035H8.92018V0L0 1.37851V13.4616L8.92018 15V13.1023H14.347C14.5113 13.1106 14.6723 13.0534 14.7947 12.9433C14.917 12.8331 14.9909 12.6789 15 12.5144V1.86769C14.9907 1.70327 14.9168 1.5492 14.7945 1.43915C14.6721 1.3291 14.5112 1.27201 14.347 1.28035ZM14.4327 12.612H8.90196L8.89286 11.5988H10.2252V10.4187H8.88268L8.87625 9.72144H10.2252V8.54139H8.86607L8.85964 7.84409H10.2252V6.66404H8.85536V5.96674H10.2252V4.7867H8.85536V4.0894H10.2252V2.90935H8.85536V1.83658H14.4327V12.612Z" fill="black"/>
<path d="M10.9751 2.9082H13.291V4.08825H10.9751V2.9082Z" fill="black"/>
<path d="M10.9751 4.78516H13.291V5.9652H10.9751V4.78516Z" fill="black"/>
<path d="M10.9751 6.66309H13.291V7.84313H10.9751V6.66309Z" fill="black"/>
<path d="M10.9751 8.54102H13.291V9.72106H10.9751V8.54102Z" fill="black"/>
<path d="M10.9751 10.4189H13.291V11.599H10.9751V10.4189Z" fill="black"/>
<path fill-rule="evenodd" clip-rule="evenodd" d="M2.3288 4.64273L3.47844 4.57675L4.20112 6.5662L5.05505 4.49469L6.20469 4.42871L4.80862 7.25331L6.20469 10.0849L4.98915 10.0028L4.16844 7.84441L3.34719 9.92075L2.23022 9.82206L3.52772 7.3209L2.3288 4.64273Z" fill="white"/>
</svg>
