<svg width="18" height="18" viewBox="0 0 18 18" fill="none" xmlns="http://www.w3.org/2000/svg">
<g clip-path="url(#clip0)">
<path d="M15.945 9.61344H13.0823V8.18209H15.945V9.61344ZM15.945 10.4313H13.0823V11.8627H15.945V10.4313ZM15.945 3.68363H13.0823V5.11495H15.945V3.68367V3.68363ZM15.945 5.93286H13.0823V7.36418H15.945V5.93286ZM15.945 12.6805H13.0823V14.1119H15.945V12.6805V12.6805ZM17.9223 15.5023C17.8405 15.9276 17.3293 15.9378 16.9878 15.9522H10.6286V17.7924H9.35884L0 16.1566V1.84542L9.41407 0.207561H10.6286V1.83723H16.769C17.1146 1.85154 17.4949 1.827 17.7955 2.03351C18.0061 2.33613 17.9857 2.72057 18 3.06815L17.9918 13.7131C17.9816 14.3082 18.047 14.9155 17.9223 15.5023ZM7.49809 12.2941C6.93376 11.1491 6.3592 10.0121 5.79688 8.86707C6.35305 7.75269 6.90107 6.63423 7.44701 5.51573C6.98284 5.53823 6.51867 5.56685 6.05658 5.59958C5.71099 6.43995 5.30817 7.25786 5.03828 8.12689C4.78677 7.30694 4.45349 6.51765 4.14882 5.71816C3.69896 5.7427 3.24911 5.76928 2.79928 5.79586C3.27364 6.84281 3.77873 7.87535 4.23879 8.92842C3.69693 9.9508 3.18983 10.9875 2.66432 12.016C3.1121 12.0344 3.55992 12.0528 4.00771 12.0589C4.32671 11.2451 4.72338 10.462 5.00147 9.63182C5.25094 10.5234 5.67418 11.3474 6.02181 12.2C6.51459 12.2348 7.00534 12.2655 7.49813 12.2941H7.49809ZM17.0248 2.80835H10.6286V3.68363H12.2645V5.11495H10.6286V5.93286H12.2645V7.36418H10.6286V8.18209H12.2645V9.61344H10.6286V10.4313H12.2645V11.8627H10.6286V12.6805H12.2645V14.1119H10.6286V15.0575H17.0248V2.80835Z" fill="white"/>
</g>
<defs>
<clipPath id="clip0">
<rect width="18" height="18" fill="white"/>
</clipPath>
</defs>
</svg>
