<svg width="114" height="92" viewBox="0 0 114 92" fill="none" xmlns="http://www.w3.org/2000/svg">
<path d="M17.1 56.4607V67.7529C17.1456 75.6913 20.9304 74.4576 23.7348 72.0749L39.9 57.6182V64.9298C39.9 71.7898 41.496 73.3989 48.45 73.3989H74.1C74.1 73.3989 88.9456 90.69 89.0625 90.5743C91.2 93.1602 96.9883 92.2794 96.9 87.5141V73.3989H105.45C112.432 73.3989 114 71.6797 114 64.9298V22.5843C114 15.809 112.318 14.1152 105.45 14.1152H76.95V8.46911C76.95 1.49621 75.639 0 68.4 0H8.55C1.824 0 0 1.43975 0 8.46911V45.1686C0 52.054 1.5675 56.4607 8.55 56.4607H17.1ZM88.35 64.9298V78.2574L76.95 64.9298H51.3C49.1625 64.9298 48.45 64.1676 48.45 62.1068V25.4073C48.45 23.5159 49.3335 22.5843 51.3 22.5843H102.6C104.564 22.5843 105.45 23.6288 105.45 25.2379V62.1068C105.45 64.1422 104.427 64.9298 102.6 64.9298H88.35Z" fill="#ECEBEB"/>
</svg>
