<svg width="32" height="43" viewBox="0 0 32 43" fill="none" xmlns="http://www.w3.org/2000/svg">
<path d="M18.6667 11.4219V0H2C0.891667 0 0 0.898633 0 2.01562V40.9844C0 42.1014 0.891667 43 2 43H30C31.1083 43 32 42.1014 32 40.9844V13.4375H20.6667C19.5667 13.4375 18.6667 12.5305 18.6667 11.4219ZM24 31.2422C24 31.7965 23.55 32.25 23 32.25H9C8.45 32.25 8 31.7965 8 31.2422V30.5703C8 30.016 8.45 29.5625 9 29.5625H23C23.55 29.5625 24 30.016 24 30.5703V31.2422ZM24 25.8672C24 26.4215 23.55 26.875 23 26.875H9C8.45 26.875 8 26.4215 8 25.8672V25.1953C8 24.641 8.45 24.1875 9 24.1875H23C23.55 24.1875 24 24.641 24 25.1953V25.8672ZM24 19.8203V20.4922C24 21.0465 23.55 21.5 23 21.5H9C8.45 21.5 8 21.0465 8 20.4922V19.8203C8 19.266 8.45 18.8125 9 18.8125H23C23.55 18.8125 24 19.266 24 19.8203ZM32 10.2377V10.75H21.3333V0H21.8417C22.375 0 22.8833 0.209961 23.2583 0.587891L31.4167 8.81836C31.7917 9.19629 32 9.70859 32 10.2377Z" fill="white"/>
</svg>
