<svg width="21" height="18" viewBox="0 0 21 18" fill="none" xmlns="http://www.w3.org/2000/svg">
<path d="M5.43332 14.129C3.60995 12.819 2.16708 11.115 1.35175 10.039C1.12376 9.74198 1 9.37659 1 9.0005C1 8.62441 1.12376 8.25902 1.35175 7.962C2.82724 6.013 6.36723 2 10.5002 2C12.3542 2 14.0876 2.807 15.57 3.874" stroke="#A6A6A6" stroke-width="2" stroke-linecap="round" stroke-linejoin="round"/>
<path d="M12.6049 6.88749C12.3304 6.60515 12.0034 6.3806 11.6428 6.22677C11.2822 6.07295 10.895 5.9929 10.5036 5.99124C10.1122 5.98958 9.72441 6.06634 9.3625 6.21711C9.00059 6.36787 8.67177 6.58964 8.39499 6.86964C8.11821 7.14964 7.89896 7.48231 7.74988 7.84848C7.6008 8.21464 7.52484 8.60705 7.52639 9.00307C7.52794 9.39909 7.60696 9.79088 7.7589 10.1558C7.91083 10.5208 8.13268 10.8517 8.41163 11.1295" stroke="#A6A6A6" stroke-width="2" stroke-linecap="round" stroke-linejoin="round"/>
<path d="M2.59375 17L18.4061 1" stroke="#A6A6A6" stroke-width="2" stroke-linecap="round" stroke-linejoin="round"/>
<path d="M8.52344 15.704C9.16503 15.8972 9.83058 15.9969 10.5 16C14.6329 16 18.1729 11.987 19.6484 10.038C19.8763 9.74071 20 9.37509 19.9998 8.99883C19.9996 8.62256 19.8756 8.25707 19.6474 7.96C19.1289 7.27549 18.5726 6.62112 17.9812 6" stroke="#A6A6A6" stroke-width="2" stroke-linecap="round" stroke-linejoin="round"/>
</svg>
