<svg width="14" height="15" viewBox="0 0 14 15" fill="none" xmlns="http://www.w3.org/2000/svg">
<path d="M1.55555 15H12.4444C12.857 15 13.2527 14.842 13.5444 14.5607C13.8361 14.2794 14 13.8979 14 13.5001V6.75033C14.0006 6.65163 13.981 6.55378 13.9423 6.46241C13.9035 6.37103 13.8465 6.28793 13.7744 6.21785L7.55221 0.218086C7.40649 0.0784032 7.20936 0 7.00388 0C6.7984 0 6.60128 0.0784032 6.45555 0.218086L0.233333 6.21785C0.159842 6.28731 0.101377 6.37014 0.061324 6.46154C0.0212712 6.55294 0.000427194 6.6511 0 6.75033V13.5001C0 13.8979 0.163888 14.2794 0.455611 14.5607C0.747334 14.842 1.143 15 1.55555 15ZM5.44444 13.5001V9.75021H8.55555V13.5001H5.44444ZM1.55555 7.05781L6.99999 1.80802L12.4444 7.05781V13.5001H10.1111V9.75021C10.1111 9.3524 9.94721 8.97088 9.65549 8.68959C9.36377 8.4083 8.96811 8.25027 8.55555 8.25027H5.44444C5.03188 8.25027 4.63622 8.4083 4.3445 8.68959C4.05277 8.97088 3.88889 9.3524 3.88889 9.75021V13.5001H1.55555V7.05781Z" fill="black"/>
</svg>
