<svg width="26" height="26" viewBox="0 0 26 26" fill="none" xmlns="http://www.w3.org/2000/svg">
<g clip-path="url(#clip0)">
<path d="M26 1.9785C26 3.01105 26 4.0436 26 5.07614C25.7599 5.7097 25.2216 5.73601 24.6428 5.68888C24.6428 5.83904 24.6428 5.94756 24.6428 6.05608C24.6428 10.5414 24.6428 15.0267 24.6428 19.5132C24.6428 19.6315 24.645 19.751 24.6329 19.8683C24.5968 20.2344 24.3085 20.5271 23.9423 20.5698C23.825 20.5841 23.7055 20.583 23.5871 20.583C20.7182 20.5841 17.8493 20.583 14.9804 20.583C14.885 20.583 14.7896 20.583 14.6427 20.583C14.7885 20.7792 14.8927 20.9217 14.999 21.0631C15.8826 22.2403 16.764 23.4197 17.6498 24.5948C17.8844 24.9061 17.9874 25.2459 17.7583 25.578C17.6344 25.7578 17.3998 25.8619 17.2157 26C17.0973 26 16.9789 26 16.8605 26C16.6456 25.8071 16.3957 25.6405 16.2213 25.4158C15.4781 24.4534 14.7567 23.4745 14.0266 22.5012C13.974 22.4299 13.9159 22.3631 13.8183 22.2414C13.8183 22.3905 13.8183 22.4716 13.8183 22.5516C13.8183 23.3463 13.7986 24.141 13.8249 24.9335C13.8414 25.4388 13.6758 25.7983 13.2044 26C13.0685 26 12.9337 26 12.7977 26C12.3263 25.7983 12.1476 25.4388 12.1783 24.9335C12.2046 24.4961 12.1838 24.0555 12.1838 23.6159C12.1838 23.1808 12.1838 22.7445 12.1838 22.2414C12.0863 22.3631 12.0282 22.431 11.9755 22.5012C11.2454 23.4734 10.5241 24.4534 9.78082 25.4158C9.60651 25.6405 9.35657 25.8071 9.1417 26C9.0233 26 8.90491 26 8.78651 26C8.60563 25.8696 8.38528 25.7698 8.25483 25.601C8.0268 25.3051 8.08929 24.951 8.36993 24.5761C9.29847 23.3375 10.2281 22.0989 11.1566 20.8603C11.2136 20.7836 11.2673 20.7035 11.3529 20.5841C11.1961 20.5841 11.0963 20.5841 10.9977 20.5841C8.17151 20.5841 5.34426 20.5841 2.5181 20.5841C2.36572 20.5841 2.21224 20.5863 2.06206 20.5698C1.69591 20.5293 1.40759 20.2333 1.37141 19.8672C1.35935 19.7499 1.36155 19.6304 1.36155 19.5121C1.36155 15.018 1.36155 10.5239 1.36155 6.02977C1.36155 5.92345 1.36155 5.81822 1.36155 5.69545C1.19163 5.69545 1.06556 5.69655 0.939487 5.69545C0.317907 5.69107 0.00547342 5.37867 0.00437716 4.75608C0.00218464 3.96906 0.00437716 3.18205 0.00437716 2.39503C0.00437716 1.63542 0.282827 1.357 1.04473 1.357C4.64156 1.357 8.23838 1.357 11.8352 1.357C11.9426 1.357 12.0501 1.357 12.1882 1.357C12.1882 1.15312 12.1827 0.977745 12.1893 0.802366C12.2079 0.344187 12.562 5.12216e-06 13.006 0.00110124C13.45 0.00219736 13.7997 0.34638 13.8183 0.80675C13.8249 0.981034 13.8194 1.15641 13.8194 1.357C13.9609 1.357 14.0694 1.357 14.1768 1.357C17.7649 1.357 21.354 1.36358 24.9421 1.34933C25.4464 1.34714 25.807 1.49731 26 1.9785ZM22.9907 18.9322C22.9907 14.5137 22.9907 10.1172 22.9907 5.71299C16.3222 5.71299 9.66791 5.71299 3.00922 5.71299C3.00922 10.1282 3.00922 14.5247 3.00922 18.9322C9.67229 18.9322 16.32 18.9322 22.9907 18.9322ZM1.64986 4.0425C9.23269 4.0425 16.7859 4.0425 24.3413 4.0425C24.3413 3.68517 24.3413 3.34537 24.3413 3.00886C16.7673 3.00886 9.21405 3.00886 1.64986 3.00886C1.64986 3.35962 1.64986 3.69393 1.64986 4.0425Z" fill="black"/>
<path d="M12.3274 12.4662C10.3816 12.4662 8.43572 12.4662 6.48986 12.4651C6.37146 12.4651 6.25197 12.464 6.13577 12.4497C5.73892 12.4026 5.4528 12.1012 5.42649 11.711C5.39908 11.2988 5.63697 10.9579 6.03162 10.8593C6.13686 10.833 6.24868 10.822 6.35721 10.822C10.3333 10.8198 14.3106 10.8198 18.2867 10.8209C18.9434 10.8209 19.3523 11.2879 19.201 11.8535C19.1144 12.179 18.8579 12.407 18.5202 12.4486C18.4029 12.4629 18.2834 12.464 18.1661 12.464C16.2192 12.4662 14.2733 12.4662 12.3274 12.4662Z" fill="black"/>
<path d="M10.3092 13.5316C11.5952 13.5316 12.8811 13.5305 14.1681 13.5338C14.3194 13.5338 14.4761 13.5415 14.6186 13.5842C14.9563 13.6851 15.1898 14.0347 15.1744 14.38C15.158 14.7373 14.9135 15.0497 14.5649 15.1352C14.4356 15.167 14.2974 15.1747 14.1637 15.1747C11.5831 15.1769 9.0025 15.1769 6.4208 15.1747C6.28706 15.1747 6.14893 15.1659 6.01957 15.1341C5.63588 15.0377 5.40238 14.7012 5.4243 14.3C5.44513 13.9087 5.72906 13.5996 6.12152 13.5491C6.23882 13.5338 6.35722 13.5327 6.47562 13.5327C7.75386 13.5316 9.031 13.5316 10.3092 13.5316Z" fill="black"/>
<path d="M7.58391 9.75549C7.14431 9.75549 6.70471 9.76097 6.26511 9.7533C5.76631 9.74563 5.41879 9.40364 5.42208 8.9345C5.42427 8.46645 5.77508 8.12556 6.27388 8.12227C7.15308 8.11789 8.03228 8.11679 8.91148 8.12227C9.40589 8.12556 9.75669 8.47413 9.7545 8.94217C9.7534 9.40802 9.4026 9.74234 8.90271 9.75549C8.88626 9.75549 8.86872 9.75549 8.85228 9.75549C8.42912 9.75549 8.00597 9.75549 7.58391 9.75549Z" fill="black"/>
</g>
<defs>
<clipPath id="clip0">
<rect width="26" height="26" fill="white"/>
</clipPath>
</defs>
</svg>
