<svg width="108" height="108" viewBox="0 0 108 108" fill="none" xmlns="http://www.w3.org/2000/svg">
<g clip-path="url(#clip0)">
<path d="M0 53.9844C0.094871 23.9907 24.2366 -0.0252533 54.0455 -7.94095e-05C84.5746 0.0250945 108.56 25.1448 107.988 55.0378C107.442 83.6548 84.4236 107.328 55.2653 107.986C24.773 108.672 0.0464674 84.2241 0 53.9844ZM32.9261 60.5819C32.9338 62.9211 32.9396 65.2604 32.9473 67.5996C32.2987 67.772 31.6424 67.9211 31.0015 68.1225C27.6791 69.1662 25.9753 73.0449 26.0702 76.0813C26.0489 76.5964 26.0644 77.1153 26.0005 77.6227C25.9017 78.3915 26.196 78.5967 26.9569 78.5851C29.9889 78.5406 33.0209 78.5677 36.0529 78.5677C48.663 78.5677 61.2751 78.5599 73.8852 78.5871C74.7177 78.589 75.0004 78.4089 74.9752 77.5356C74.9113 75.2486 74.9597 72.9578 74.9423 70.6689C74.9268 68.7576 73.8522 67.7158 71.9084 67.7119C69.3604 67.7061 66.8124 67.7235 64.2645 67.7061C62.5916 67.6945 61.3506 66.9567 60.7213 65.3669C58.9652 60.9401 57.2324 56.5057 55.4821 52.077C55.3214 51.6723 55.304 51.3043 55.4124 50.8686C56.2798 47.3714 57.1336 43.8684 57.9391 40.3556C58.0707 39.7844 58.3283 39.5694 58.8491 39.4126C61.0679 38.7503 63.2848 38.0745 65.4784 37.3328C66.1619 37.1024 66.4097 37.2689 66.6943 37.8905C68.5027 41.839 70.799 45.4814 73.7206 48.7076C75.072 50.1986 75.558 50.1638 76.3247 48.2893C78.6016 42.7123 79.4632 36.9262 78.2725 30.9774C77.3722 26.4829 74.6422 24.5387 70.2897 24.9608C67.2016 25.261 65.2984 26.8489 64.8472 29.5444C64.6304 30.8341 64.7969 32.1121 65.1009 33.3767C65.4436 34.8058 65.4339 34.8019 64.0592 35.2318C54.82 38.1093 45.5807 40.985 36.3472 43.8761C34.0916 44.581 32.9183 46.194 32.9067 48.5526C32.8951 50.7467 32.9106 52.9387 32.9144 55.1327C32.3258 55.2993 31.7489 55.489 31.2203 55.8066C29.4468 56.8775 29.4604 58.8236 31.2706 59.8441C31.7915 60.1423 32.3723 60.3398 32.9261 60.5819Z" fill="#44494A"/>
<path d="M32.9129 55.1348C32.909 52.9407 32.8955 50.7467 32.9052 48.5547C32.9168 46.1961 34.0901 44.583 36.3457 43.8781C45.5811 40.989 54.8204 38.1133 64.0577 35.2338C65.4324 34.8059 65.442 34.8097 65.0993 33.3787C64.7954 32.1142 64.6289 30.8381 64.8457 29.5464C65.2988 26.849 67.202 25.263 70.2882 24.9629C74.6387 24.5388 77.3706 26.483 78.2709 30.9794C79.4616 36.9282 78.6001 42.7163 76.3232 48.2913C75.5584 50.1658 75.0705 50.2007 73.719 48.7096C70.7955 45.4835 68.4992 41.8429 66.6928 37.8926C66.4082 37.271 66.1603 37.1044 65.4769 37.3349C63.2832 38.0765 61.0663 38.7504 58.8475 39.4146C58.3267 39.5695 58.0692 39.7864 57.9375 40.3577C57.1321 43.8704 56.2783 47.3715 55.4109 50.8707C55.3025 51.3064 55.3199 51.6743 55.4806 52.079C57.2308 56.5077 58.9637 60.9422 60.7198 65.3689C61.349 66.9587 62.5901 67.6946 64.2629 67.7081C66.8109 67.7275 69.3588 67.7081 71.9068 67.714C73.8488 67.7178 74.9253 68.7596 74.9407 70.6709C74.9582 72.9598 74.9098 75.2487 74.9737 77.5376C74.9988 78.4109 74.7162 78.591 73.8836 78.5891C61.2735 78.562 48.6615 78.5697 36.0514 78.5697C33.0194 78.5697 29.9874 78.5445 26.9554 78.5871C26.1945 78.5988 25.9002 78.3935 25.9989 77.6247C26.0648 77.1154 26.0493 76.5965 26.0686 76.0833C31.4666 76.0794 36.8626 76.0756 42.2606 76.0717C42.8085 76.0814 43.3584 76.0601 43.9024 76.1124C44.4155 76.1627 44.6304 75.9323 44.8008 75.4811C47.6102 67.9831 50.4272 60.489 53.2598 52.9988C53.4496 52.4992 53.3624 52.1836 52.9791 51.8215C50.3285 49.3254 47.6915 46.8177 45.0699 44.2925C44.7156 43.9517 44.4136 43.8956 43.9567 44.0427C41.6623 44.7805 39.3525 45.4738 37.0543 46.2038C35.85 46.5872 35.3486 47.3018 35.3428 48.574C35.3331 50.7661 35.3331 52.9582 35.3292 55.1502C34.5257 55.1444 33.7183 55.1386 32.9129 55.1348ZM47.3662 43.0958C49.4379 45.0691 51.3585 46.9009 53.3934 48.8393C54.0633 46.0392 54.6945 43.4076 55.3605 40.6249C52.6422 41.4653 50.0904 42.2535 47.3662 43.0958Z" fill="#F6F6F6"/>
<path d="M42.2641 76.0698C36.8661 76.0737 31.4701 76.0775 26.0721 76.0814C25.9772 73.047 27.6811 69.1663 31.0035 68.1226C31.6443 67.9212 32.2988 67.7721 32.9493 67.5997C33.8031 67.6966 34.657 67.7914 35.5108 67.8883C37.1817 68.0742 38.5351 68.8662 39.6716 70.0745C41.2554 71.7631 41.9233 73.8448 42.2641 76.0698Z" fill="#F4D008"/>
<path d="M32.9124 55.1348C33.7198 55.1406 34.5271 55.1464 35.3326 55.1522C35.8515 55.4039 36.4071 55.6015 36.8795 55.919C38.5117 57.0131 38.4575 58.7889 36.7731 59.7958C36.3103 60.0727 35.8011 60.2702 35.3151 60.5046C34.5194 60.5317 33.7217 60.5568 32.9259 60.584C32.3722 60.3419 31.7914 60.1444 31.2686 59.8481C29.4583 58.8257 29.4448 56.8815 31.2183 55.8106C31.7468 55.4891 32.3238 55.3013 32.9124 55.1348Z" fill="#F4D008"/>
<path d="M32.9258 60.582C33.7215 60.5549 34.5192 60.5297 35.315 60.5007C35.3247 62.6676 35.3266 64.8364 35.3518 67.0052C35.3556 67.2976 35.164 67.6481 35.5086 67.8883C34.6548 67.7934 33.8009 67.6966 32.9471 67.5997C32.9413 65.2605 32.9335 62.9212 32.9258 60.582Z" fill="#F6F6F6"/>
<path d="M35.5102 67.8882C35.1656 67.6481 35.3573 67.2976 35.3534 67.0052C35.3263 64.8364 35.3244 62.6676 35.3166 60.5007C35.8045 60.2683 36.3137 60.0708 36.7745 59.7939C38.459 58.7869 38.5132 57.0112 36.881 55.9171C36.4067 55.5995 35.851 55.402 35.334 55.1502C35.3379 52.9582 35.3379 50.7661 35.3476 48.5741C35.3534 47.3018 35.8549 46.5853 37.0591 46.2038C39.3574 45.4719 41.6652 44.7805 43.9615 44.0427C44.4184 43.8956 44.7205 43.9517 45.0748 44.2925C47.6963 46.8177 50.3334 49.3273 52.9839 51.8215C53.3673 52.1817 53.4544 52.4973 53.2647 52.9989C50.4321 60.4871 47.6131 67.9831 44.8057 75.4811C44.6372 75.9323 44.4204 76.1627 43.9073 76.1124C43.3632 76.0601 42.8134 76.0814 42.2654 76.0717C41.9247 73.8467 41.2567 71.765 39.671 70.0784C38.5345 68.8662 37.1811 68.0761 35.5102 67.8882Z" fill="#44494A"/>
<path d="M47.3662 43.0958C50.0904 42.2535 52.6402 41.4653 55.3605 40.6249C54.6945 43.4076 54.0633 46.0412 53.3934 48.8394C51.3585 46.901 49.4379 45.071 47.3662 43.0958Z" fill="#44494A"/>
</g>
<defs>
<clipPath id="clip0">
<rect width="108" height="108" fill="white"/>
</clipPath>
</defs>
</svg>
