<svg width="108" height="108" viewBox="0 0 108 108" fill="none" xmlns="http://www.w3.org/2000/svg">
<circle cx="54" cy="54" r="54" fill="white"/>
<g clip-path="url(#clip0)">
<path d="M38.608 77.1374C32.437 77.1418 26.2639 77.1484 20.093 77.1528C19.9823 73.7882 21.8593 69.3401 25.7371 68.0762C26.4653 67.8383 27.2843 67.9286 27.9417 67.4596C28.8469 67.4948 29.7522 67.5301 30.6575 67.5653C30.8191 67.8053 31.078 67.8339 31.3326 67.8802C32.9705 68.1863 34.3627 68.9768 35.5048 70.1526C37.3906 72.0948 38.225 74.5214 38.608 77.1374Z" fill="#44494A"/>
<path d="M27.9084 53.3293C28.8313 53.336 29.7543 53.3404 30.6773 53.347C31.1731 53.5716 31.691 53.7587 32.1603 54.0252C34.3427 55.2715 34.3338 57.4251 32.1935 58.722C31.6977 59.0237 31.0558 59.0237 30.6662 59.506C29.7543 59.517 28.8424 59.528 27.9305 59.5412C27.2997 59.2615 26.6401 59.0325 26.0425 58.6956C23.9663 57.5242 23.9442 55.3332 25.9717 54.1C26.5737 53.7323 27.2444 53.5385 27.9084 53.3293Z" fill="#44494A"/>
<path d="M27.9304 59.539C28.8423 59.528 29.7542 59.517 30.6662 59.5038C30.6639 62.1902 30.6595 64.8766 30.6573 67.5631C29.752 67.5279 28.8468 67.4926 27.9415 67.4574C27.9371 64.8194 27.9348 62.1792 27.9304 59.539Z" fill="#F9E34A"/>
<path d="M84.3569 34.4608C81.9177 33.1682 79.4011 32.7234 77.0062 34.6171C75.4856 35.8194 74.5604 37.4643 74.0005 39.2678L73.788 40.0627C73.5666 39.9658 73.3386 39.8777 73.0974 39.8006C62.814 36.6055 33.2587 27.3858 33.2587 27.3858C30.9059 26.4499 28.9802 27.2757 28.3029 29.2949C28.0705 29.9863 27.9599 30.7592 27.9488 31.585C27.9134 34.1525 27.9466 50.7534 27.951 53.3209C28.874 53.3275 29.797 53.332 30.72 53.3386C30.7244 50.8811 30.7266 34.3903 30.7355 31.9351C30.7355 31.9263 30.7355 31.9153 30.7355 31.9065C30.7443 30.7548 31.8908 29.9533 32.9953 30.3012C37.8404 31.8294 45.4235 34.1635 47.2982 34.714C47.9246 34.8968 48.1592 35.1919 48.3031 35.8128C49.2305 39.8029 50.1977 43.7863 51.196 47.7587C51.2491 47.9701 51.4926 48.6703 51.4926 49.2494C51.4926 49.9453 51.2934 50.5795 51.1716 50.9075C51.1583 50.9428 51.1451 50.9758 51.1318 51.011C51.1274 51.0199 51.1229 51.0309 51.1207 51.0397C47.9002 59.5086 44.6975 67.9841 41.5058 76.464C41.3132 76.9727 41.0764 77.2413 40.4854 77.1818C39.8657 77.1202 39.2348 77.1488 38.6085 77.14C32.4353 77.1444 26.2644 77.151 20.0935 77.1554C20.0692 77.8138 20.0736 78.4744 20.0116 79.1284C19.9496 79.7956 20.1887 79.9982 20.8726 79.9982C38.9405 79.9806 57.0083 79.9784 75.0762 80.0004C75.8442 80.0004 75.9969 79.734 75.9881 79.0491C75.9571 76.3737 75.9836 73.6983 75.9681 71.0206C75.9549 68.8363 74.7287 67.6384 72.5263 67.6318C69.6135 67.623 66.7007 67.645 63.7879 67.6252C61.8291 67.6119 60.4169 66.7488 59.6821 64.8903C57.7586 60.0326 55.833 55.1794 53.9051 50.324C53.5997 49.5203 53.8033 49.1526 54.7175 48.2387C57.2961 45.6624 59.8082 43.0772 62.4665 40.8818C63.509 40.0208 63.5843 39.8425 64.6954 40.1221C67.7831 40.8994 68.726 41.3905 70.9925 42.1216C71.8601 42.4012 72.5263 42.6456 73.0177 42.9517L72.6414 44.3588C71.7959 49.3375 71.6255 54.3383 72.3537 59.3478C72.6082 61.0962 73.0487 61.29 74.6113 60.4973C74.7419 60.4312 74.8769 60.3696 74.9987 60.2881C80.7513 56.4544 85.344 51.5858 88.0643 45.2C90.105 40.415 88.7792 36.8081 84.3569 34.4608ZM54.111 44.8586C53.6904 45.2594 53.4204 45.3673 53.3031 44.612C53.188 43.8589 52.9401 43.1257 52.7608 42.3792C52.2717 40.3335 51.7869 38.2857 51.2602 36.0749C54.4054 37.0459 57.316 37.9466 60.3616 38.8868C58.1836 40.9655 56.1473 42.9121 54.111 44.8586Z" fill="#FCD816"/>
</g>
<defs>
<clipPath id="clip0">
<rect width="69" height="53" fill="white" transform="translate(20 27)"/>
</clipPath>
</defs>
</svg>
