<svg width="21" height="21" viewBox="0 0 21 21" fill="none" xmlns="http://www.w3.org/2000/svg">
<path d="M19.6284 11.0298C19.7163 11.3227 19.7603 11.6255 19.7603 11.9331C19.7603 12.624 19.5332 13.2881 19.123 13.8301C19.2109 14.123 19.2549 14.4258 19.2549 14.7334C19.2549 15.4243 19.0278 16.0884 18.6177 16.6304C18.7056 16.9233 18.7495 17.2261 18.7495 17.5337C18.7495 18.7934 18 19.9287 16.8379 20.4243C16.6336 20.5124 16.4134 20.5572 16.1909 20.5561H1.51562C1.0835 20.5561 0.734375 20.207 0.734375 19.7749V10.8882C0.734375 10.456 1.0835 10.1069 1.51562 10.1069H4.67236L6.76709 2.51903C7.104 1.29588 8.22705 0.441389 9.49658 0.441389C10.2217 0.441389 10.8979 0.729475 11.3984 1.25682C11.8989 1.78172 12.1553 2.4702 12.1187 3.1953L11.9722 6.19578H17.8291C18.1245 6.19578 18.4126 6.27391 18.6665 6.42283C19.6528 6.99656 20.2656 8.0366 20.2656 9.13279C20.2656 9.82371 20.0386 10.4878 19.6284 11.0298ZM2.49219 11.8672V18.8008H4.46973V11.8672H2.49219ZM17.8047 7.95115H10.1289L10.3633 3.1074C10.3779 2.81688 10.2485 2.54344 10.0068 2.36278C9.85791 2.25291 9.6748 2.19676 9.4917 2.1992C9.25777 2.20147 9.03088 2.27956 8.84511 2.42175C8.65934 2.56394 8.52471 2.76255 8.46143 2.98778L6.03223 11.789V18.8008H16.1738C16.4179 18.6914 16.6251 18.5139 16.7706 18.2895C16.9162 18.0652 16.9938 17.8035 16.9941 17.5361C16.9941 17.2993 16.938 17.0747 16.8257 16.8696L16.4863 16.2495L17.021 15.7856C17.1715 15.6553 17.2921 15.494 17.3747 15.3129C17.4573 15.1317 17.4998 14.9349 17.4995 14.7358C17.4995 14.499 17.4434 14.2744 17.3311 14.0693L16.9917 13.4492L17.5264 12.9853C17.6769 12.855 17.7975 12.6938 17.8801 12.5126C17.9626 12.3314 18.0052 12.1346 18.0049 11.9355C18.0049 11.6987 17.9487 11.4741 17.8364 11.269L17.4946 10.6465L18.0293 10.1826C18.1798 10.0523 18.3004 9.89102 18.383 9.70986C18.4656 9.52871 18.5081 9.33188 18.5078 9.13279C18.5078 8.66649 18.2393 8.21727 17.8047 7.95115Z" fill="white"/>
</svg>
