<svg width="22" height="22" viewBox="0 0 22 22" fill="none" xmlns="http://www.w3.org/2000/svg">
<path d="M20.2812 4.125H16.5V1.71875H15.125V4.125H6.875V1.71875H5.5V4.125H1.71875C1.44534 4.12532 1.18323 4.23407 0.989898 4.4274C0.79657 4.62073 0.687818 4.88284 0.6875 5.15625V19.5938C0.687818 19.8672 0.79657 20.1293 0.989898 20.3226C1.18323 20.5159 1.44534 20.6247 1.71875 20.625H20.2812C20.5547 20.6247 20.8168 20.5159 21.0101 20.3226C21.2034 20.1293 21.3122 19.8672 21.3125 19.5938V5.15625C21.3122 4.88284 21.2034 4.62073 21.0101 4.4274C20.8168 4.23407 20.5547 4.12532 20.2812 4.125ZM19.9375 19.25H2.0625V5.5H5.5V7.21875H6.875V5.5H15.125V7.21875H16.5V5.5H19.9375V19.25Z" fill="#F3D207"/>
<path d="M4.8125 9.625H6.1875V11H4.8125V9.625Z" fill="#F3D207"/>
<path d="M8.59375 9.625H9.96875V11H8.59375V9.625Z" fill="#F3D207"/>
<path d="M12.0312 9.625H13.4062V11H12.0312V9.625Z" fill="#F3D207"/>
<path d="M15.8125 9.625H17.1875V11H15.8125V9.625Z" fill="#F3D207"/>
<path d="M4.8125 12.7188H6.1875V14.0938H4.8125V12.7188Z" fill="#F3D207"/>
<path d="M8.59375 12.7188H9.96875V14.0938H8.59375V12.7188Z" fill="#F3D207"/>
<path d="M12.0312 12.7188H13.4062V14.0938H12.0312V12.7188Z" fill="#F3D207"/>
<path d="M15.8125 12.7188H17.1875V14.0938H15.8125V12.7188Z" fill="#F3D207"/>
<path d="M4.8125 15.8125H6.1875V17.1875H4.8125V15.8125Z" fill="#F3D207"/>
<path d="M8.59375 15.8125H9.96875V17.1875H8.59375V15.8125Z" fill="#F3D207"/>
<path d="M12.0312 15.8125H13.4062V17.1875H12.0312V15.8125Z" fill="#F3D207"/>
<path d="M15.8125 15.8125H17.1875V17.1875H15.8125V15.8125Z" fill="#F3D207"/>
</svg>
