<svg width="17" height="13" viewBox="0 0 17 13" fill="none" xmlns="http://www.w3.org/2000/svg">
<path d="M2.55 0V11.163C2.55 11.3504 2.47537 11.5301 2.34253 11.6626C2.2097 11.7951 2.02953 11.8696 1.84167 11.8696C1.65381 11.8696 1.47364 11.7951 1.3408 11.6626C1.20796 11.5301 1.13333 11.3504 1.13333 11.163V2.82609H0V11.163C0.000553059 11.6501 0.194763 12.117 0.540022 12.4614C0.885282 12.8057 1.3534 12.9994 1.84167 13H15.1583C15.6466 12.9994 16.1147 12.8057 16.46 12.4614C16.8052 12.117 16.9994 11.6501 17 11.163V0H2.55ZM15.8667 11.163C15.8665 11.3504 15.7918 11.5299 15.659 11.6624C15.5262 11.7948 15.3461 11.8693 15.1583 11.8696H3.54167C3.63544 11.6458 3.68359 11.4056 3.68333 11.163V1.13043H15.8667V11.163Z" fill="white"/>
<path d="M9.91689 2.26086H4.81689V7.91304H9.91689V2.26086ZM8.78356 6.7826H5.95023V3.3913H8.78356V6.7826Z" fill="white"/>
<path d="M11.0498 2.26086H14.7331V3.3913H11.0498V2.26086Z" fill="white"/>
<path d="M11.0498 4.52173H14.7331V5.65216H11.0498V4.52173Z" fill="white"/>
<path d="M11.0498 6.78259H14.7331V7.91303H11.0498V6.78259Z" fill="white"/>
</svg>
