<svg width="1980" height="1790" viewBox="0 0 1980 1790" fill="none" xmlns="http://www.w3.org/2000/svg">
<path opacity="0.3" d="M-132 1161.72L655.072 361.225L788.474 487.971L988.577 281.175L1121.98 421.262L1368.77 174.442L1435.47 241.15L1688.94 1L1809 121.075L1408.79 521.325L1462.15 581.362L1655.59 394.579L1775.65 514.654L1595.56 708.108L1708.95 821.512L685 1845.46" stroke="#7A7A7A"/>
<g opacity="0.1" filter="url(#filter0_f_254_1059)">
<ellipse cx="1371.24" cy="1958.4" rx="686.022" ry="526.295" transform="rotate(-51.1411 1371.24 1958.4)" fill="#3D464B"/>
</g>
<path opacity="0.1" d="M-132 1219.72L655.072 419.225L788.474 545.971L988.577 339.175L1121.98 479.262L1368.77 232.442L1435.47 299.15L1688.94 59L1809 179.075L1408.79 579.325L1462.15 639.362L1655.59 452.579L1775.65 572.654L1595.56 766.108L1708.95 879.512L928.546 1660" stroke="#7A7A7A"/>
<defs>
<filter id="filter0_f_254_1059" x="526.92" y="1080.3" width="1688.63" height="1756.2" filterUnits="userSpaceOnUse" color-interpolation-filters="sRGB">
<feFlood flood-opacity="0" result="BackgroundImageFix"/>
<feBlend mode="normal" in="SourceGraphic" in2="BackgroundImageFix" result="shape"/>
<feGaussianBlur stdDeviation="125" result="effect1_foregroundBlur_254_1059"/>
</filter>
</defs>
</svg>
