<svg width="19" height="19" viewBox="0 0 19 19" fill="none" xmlns="http://www.w3.org/2000/svg">
<g clip-path="url(#clip0_231_2468)">
<path d="M1.9619 19C1.59929 18.907 1.24133 18.8001 0.92985 18.5723C0.199974 18.0377 -0.139394 17.1125 0.0558589 16.2292C0.474259 14.3604 1.35755 12.7426 2.71502 11.3897C3.72383 10.3856 4.90465 9.64642 6.24818 9.16758C6.31791 9.14434 6.38299 9.11644 6.47132 9.0839C5.16034 8.0286 4.45835 6.68972 4.45835 5.02542C4.45371 3.6447 4.96043 2.44994 5.9367 1.47367C7.89853 -0.492804 11.0365 -0.488155 13.0495 1.45508C14.9509 3.29139 15.281 6.95006 12.5474 9.0746C12.8961 9.21872 13.2447 9.35819 13.5888 9.50695C13.9374 9.66036 14.1141 9.99508 14.049 10.3298C13.956 10.804 13.4911 11.0504 13.0263 10.8784C12.5242 10.6924 12.0267 10.4739 11.5107 10.3438C9.52564 9.84167 7.6103 10.0648 5.78794 10.9946C4.20731 11.7989 3.0172 13.0076 2.20829 14.5835C1.88287 15.2158 1.65043 15.8899 1.50631 16.5872C1.41333 17.0242 1.69692 17.424 2.13391 17.4984C2.22689 17.5123 2.31987 17.5123 2.41284 17.5123C5.36489 17.5123 8.31228 17.5123 11.2643 17.517C11.3991 17.517 11.5433 17.5263 11.6641 17.5728C11.957 17.6843 12.1151 17.9121 12.1383 18.2236C12.1569 18.5211 11.9896 18.8001 11.7153 18.9256C11.6595 18.9535 11.6037 18.9767 11.5479 19C8.34482 19 5.15569 19 1.9619 19ZM13.0588 5.03937C13.0541 3.07754 11.4456 1.47367 9.48845 1.47832C7.52662 1.48297 5.92275 3.09614 5.93205 5.05332C5.94135 7.03839 7.54522 8.60507 9.56748 8.60042C11.4689 8.60042 13.0634 6.96866 13.0588 5.03937Z" fill="black"/>
<path d="M15.3229 19C14.8812 18.8466 14.7092 18.5351 14.7232 18.0749C14.7418 17.4659 14.7278 16.8522 14.7278 16.2153C14.6488 16.2153 14.5837 16.2153 14.5186 16.2153C13.9329 16.2153 13.3425 16.2153 12.7567 16.2153C12.2825 16.2153 11.9525 15.9131 11.9478 15.4808C11.9432 15.0438 12.2779 14.7323 12.7614 14.7323C13.4122 14.7323 14.0584 14.7323 14.7325 14.7323C14.7325 14.6579 14.7325 14.5882 14.7325 14.5231C14.7325 13.9373 14.7325 13.3469 14.7325 12.7612C14.7325 12.2777 15.044 11.943 15.4809 11.9476C15.9086 11.9523 16.2108 12.2823 16.2155 12.7565C16.2155 13.4074 16.2155 14.0536 16.2155 14.7277C16.2899 14.7277 16.3549 14.7277 16.42 14.7277C16.9686 14.7277 17.5218 14.7416 18.0704 14.723C18.5306 14.7091 18.8467 14.8764 18.9955 15.3227C18.9955 15.4203 18.9955 15.5226 18.9955 15.6202C18.8421 16.0619 18.5306 16.2339 18.0704 16.22C17.5218 16.2014 16.9686 16.2153 16.42 16.2153C16.3549 16.2153 16.2899 16.2153 16.2108 16.2153C16.2108 16.8522 16.1969 17.4612 16.2155 18.0749C16.2294 18.5351 16.0621 18.8512 15.6158 19C15.5228 19 15.4252 19 15.3229 19Z" fill="black"/>
</g>
<defs>
<clipPath id="clip0_231_2468">
<rect width="19" height="19" fill="white"/>
</clipPath>
</defs>
</svg>
