<svg width="69" height="69" viewBox="0 0 69 69" fill="none" xmlns="http://www.w3.org/2000/svg">
<path d="M64.0714 19.7143H54.2143V0H49.2857V19.7143H27.1071V14.7857H22.1786V19.7143H14.7857V14.7857H9.85714V19.7143H4.92857C3.62143 19.7143 2.36783 20.2335 1.44354 21.1578C0.519258 22.0821 0 23.3357 0 24.6429V64.0714C0 65.3786 0.519258 66.6322 1.44354 67.5564C2.36783 68.4807 3.62143 69 4.92857 69H64.0714C65.3786 69 66.6322 68.4807 67.5564 67.5564C68.4807 66.6322 69 65.3786 69 64.0714V24.6429C69 23.3357 68.4807 22.0821 67.5564 21.1578C66.6322 20.2335 65.3786 19.7143 64.0714 19.7143ZM4.92857 64.0714V24.6429H64.0714V64.0714H4.92857Z" fill="#FFE247"/>
<path d="M20.1951 58.9024C18.198 58.9024 16.2458 58.3102 14.5852 57.2007C12.9247 56.0912 11.6305 54.5141 10.8662 52.6691C10.1019 50.824 9.90197 48.7937 10.2916 46.8349C10.6812 44.8762 11.6429 43.077 13.0551 41.6648C14.4672 40.2527 16.2665 39.291 18.2252 38.9013C20.1839 38.5117 22.2142 38.7117 24.0593 39.476C25.9044 40.2402 27.4814 41.5344 28.5909 43.195C29.7005 44.8555 30.2927 46.8078 30.2927 48.8049C30.2927 51.4829 29.2288 54.0513 27.3352 55.9449C25.4415 57.8386 22.8732 58.9024 20.1951 58.9024ZM20.1951 43.7561C19.1966 43.7561 18.2204 44.0522 17.3902 44.607C16.5599 45.1617 15.9128 45.9503 15.5307 46.8728C15.1485 47.7953 15.0486 48.8105 15.2434 49.7899C15.4382 50.7692 15.919 51.6688 16.6251 52.3749C17.3312 53.081 18.2308 53.5618 19.2102 53.7567C20.1895 53.9515 21.2047 53.8515 22.1272 53.4693C23.0498 53.0872 23.8383 52.4401 24.393 51.6098C24.9478 50.7796 25.2439 49.8034 25.2439 48.8049C25.2439 47.4659 24.712 46.1817 23.7652 45.2349C22.8183 44.288 21.5341 43.7561 20.1951 43.7561Z" fill="#FFE247"/>
<path d="M11.7805 30.2927H26.9269V33.6585H11.7805V30.2927Z" fill="#FFE247"/>
<path d="M37.0244 33.6585H58.9025V38.7073H37.0244V33.6585Z" fill="#FFE247"/>
<path d="M37.0244 43.7561H58.9025V48.8049H37.0244V43.7561Z" fill="#FFE247"/>
<path d="M37.0244 53.8537H58.9025V58.9024H37.0244V53.8537Z" fill="#FFE247"/>
</svg>
