<?xml version="1.0" standalone="no"?>
<!DOCTYPE svg PUBLIC "-//W3C//DTD SVG 20010904//EN"
 "http://www.w3.org/TR/2001/REC-SVG-20010904/DTD/svg10.dtd">
<svg version="1.0" xmlns="http://www.w3.org/2000/svg"
 width="445.000000pt" height="208.000000pt" viewBox="0 0 445.000000 208.000000"
 preserveAspectRatio="xMidYMid meet">
<metadata>
Created by potrace 1.16, written by Peter Selinger 2001-2019
</metadata>
<g transform="translate(0.000000,208.000000) scale(0.100000,-0.100000)"
fill="#000000" stroke="none">
<path d="M3360 2060 c-30 -11 -70 -33 -90 -48 -44 -35 -96 -112 -110 -160 -13
-48 -13 -148 0 -173 20 -37 29 -18 28 64 -2 98 19 154 79 214 56 56 105 77
196 81 54 3 77 8 77 17 0 31 -99 34 -180 5z"/>
<path d="M1972 1963 c-6 -2 -10 -9 -6 -14 3 -5 0 -9 -5 -9 -6 0 -11 5 -11 10
0 7 -323 10 -950 10 -696 0 -950 -3 -950 -11 0 -8 -5 -8 -15 1 -12 10 -16 10
-20 -1 -3 -8 -4 -447 -3 -977 l3 -962 973 -3 c641 -1 973 1 976 8 3 6 5 4 5
-2 1 -10 256 -13 1241 -13 l1240 0 -2 983 -3 982 -351 3 c-304 2 -353 0 -364
-13 -10 -12 -10 -18 0 -30 11 -13 61 -15 341 -15 l329 0 0 -930 0 -930 -1220
0 -1220 0 0 930 0 930 462 2 c444 3 463 4 466 22 2 10 -2 22 -10 27 -14 9
-884 11 -906 2z m-1945 -1476 c-1 -265 -2 -48 -2 483 0 531 1 748 2 482 2
-265 2 -699 0 -965z m23 488 c0 -522 -2 -951 -5 -954 -3 -2 -5 427 -5 954 0
527 3 956 5 953 3 -3 5 -432 5 -953z m1435 755 c4 -6 12 -7 18 -3 20 13 36 12
31 -2 -4 -9 8 -15 36 -20 27 -5 46 -15 57 -31 11 -18 21 -23 36 -18 12 4 17 2
13 -4 -3 -6 -2 -13 2 -16 5 -3 8 -15 7 -28 -3 -25 22 -61 36 -52 5 3 9 -2 9
-10 0 -9 -3 -15 -7 -15 -25 4 -35 -2 -25 -14 6 -7 9 -26 6 -41 -3 -18 -1 -25
6 -21 5 3 10 1 10 -4 0 -6 8 -11 18 -12 14 0 14 -2 -3 -8 -12 -5 -23 -4 -27 3
-5 6 -8 2 -8 -11 0 -12 8 -27 18 -32 20 -12 13 -14 -53 -15 -27 -1 -53 4 -57
9 -5 6 -8 5 -8 -2 0 -7 -7 -13 -16 -13 -9 0 -12 5 -8 12 5 8 0 9 -15 5 -18 -4
-20 -3 -10 9 6 8 8 21 4 31 -12 28 -14 44 -4 37 5 -3 9 2 9 10 0 8 -5 18 -11
21 -6 4 -8 13 -5 21 3 8 0 13 -7 11 -7 -1 -12 8 -12 20 0 12 -5 26 -9 30 -5 4
-6 2 -2 -4 4 -7 2 -13 -3 -13 -6 0 -11 6 -12 13 -1 6 -5 1 -9 -13 -5 -17 -8
-19 -9 -7 -1 13 -10 17 -47 17 -26 0 -43 4 -39 10 3 5 -6 5 -24 -1 -24 -9 -29
-15 -27 -42 1 -21 -3 -31 -11 -29 -14 2 -15 -27 -12 -268 1 -74 1 -157 1 -183
-1 -56 9 -56 15 0 7 69 14 49 10 -29 -5 -79 -2 -92 17 -81 17 11 37 12 30 2
-3 -5 -10 -6 -16 -3 -6 4 -9 3 -6 -2 9 -14 109 -10 145 5 27 11 32 18 29 42
-2 16 1 29 6 29 6 0 8 26 6 60 -2 36 1 60 7 60 6 0 4 4 -2 8 -7 5 26 8 75 8
80 -1 112 -10 112 -32 0 -4 -3 -4 -7 -1 -3 4 -13 1 -21 -6 -13 -10 -14 -8 -8
11 5 14 3 22 -4 22 -6 0 -10 -15 -8 -35 1 -22 6 -31 13 -25 6 5 10 -2 11 -22
1 -19 -2 -25 -7 -17 -4 8 -11 10 -16 6 -4 -4 -1 -17 6 -29 9 -15 10 -18 0 -12
-9 5 -10 2 -6 -9 4 -10 2 -17 -5 -17 -6 0 -5 -6 3 -17 10 -11 10 -14 2 -9 -8
4 -13 2 -13 -6 0 -7 -7 -26 -15 -41 -8 -15 -10 -25 -6 -22 18 11 19 -24 1 -40
-11 -10 -17 -23 -13 -29 4 -6 -1 -5 -10 3 -16 13 -14 36 3 26 5 -3 11 -1 14 4
4 5 2 12 -3 15 -12 8 -44 -31 -36 -44 3 -6 3 -10 -2 -9 -22 4 -53 -2 -53 -10
0 -5 10 -7 23 -4 12 3 19 3 16 -1 -10 -10 -80 -15 -73 -5 3 5 -2 9 -11 9 -9 0
-13 -4 -10 -10 3 -5 1 -10 -4 -10 -6 0 -11 5 -11 10 0 6 -5 10 -11 10 -5 0 -8
-3 -6 -7 3 -5 -17 -8 -44 -8 -27 0 -49 4 -49 9 0 5 -7 3 -15 -4 -12 -10 -15
-10 -15 1 0 8 -6 6 -16 -7 -8 -10 -12 -12 -8 -4 7 13 5 13 -9 1 -9 -7 -18 -11
-18 -7 -1 3 -2 10 -3 16 -2 15 -38 36 -65 38 -31 1 -38 9 -21 25 7 6 10 7 7 1
-3 -6 0 -11 8 -11 10 0 8 8 -8 28 -12 15 -28 26 -34 24 -15 -5 -18 11 -4 19 5
3 7 15 4 26 -3 11 -8 18 -12 16 -3 -3 -6 17 -6 42 0 31 -6 54 -17 66 -16 17
-18 38 -16 160 l2 141 5 -142 c9 -226 26 -195 26 47 0 121 -4 206 -9 203 -5
-4 -6 0 -1 8 5 7 8 31 6 52 -2 24 1 37 7 33 6 -3 8 -16 6 -29 -4 -20 -4 -20 5
-2 4 11 6 24 4 28 -3 4 1 15 9 24 7 9 13 30 14 47 2 56 4 66 13 66 5 0 11 -9
14 -20 3 -10 0 -18 -5 -17 -6 1 -12 -6 -13 -15 -5 -27 7 -21 38 19 15 20 27
31 27 24 0 -8 7 -8 28 2 15 8 33 12 39 10 7 -3 23 3 35 11 25 18 83 21 93 6z
m-1004 -32 c1 -15 5 -31 8 -38 1 -3 5 -16 7 -30 3 -13 12 -28 20 -33 11 -6 14
-17 9 -34 -4 -16 -2 -22 4 -18 6 3 9 0 6 -7 -3 -8 4 -40 15 -73 13 -41 19 -50
18 -30 -1 17 -6 36 -12 43 -6 9 -4 11 8 6 10 -4 15 -13 12 -20 -3 -8 -1 -14 4
-14 5 0 5 -12 1 -27 -8 -34 -3 -73 10 -73 5 0 9 -6 8 -12 -4 -30 2 -48 25 -75
18 -21 21 -33 15 -50 -5 -13 -5 -23 1 -23 5 0 11 8 13 18 3 9 4 5 4 -10 -1
-15 -5 -24 -9 -22 -4 3 -8 0 -8 -5 0 -6 10 -11 22 -11 21 0 21 0 2 -15 -14
-11 -15 -14 -3 -9 10 3 20 0 25 -7 4 -7 3 -10 -4 -5 -6 3 -13 2 -17 -4 -3 -5
-2 -10 4 -10 6 0 8 -6 5 -14 -3 -8 -1 -23 4 -32 9 -15 11 -14 27 9 10 16 14
34 10 48 -5 14 -4 19 4 15 7 -4 11 1 11 13 0 12 4 21 8 21 4 0 8 9 9 20 1 11
-2 18 -6 16 -4 -3 -8 1 -8 8 0 8 5 12 11 10 6 -2 16 12 22 31 11 34 7 41 -19
36 -5 -1 -6 3 -2 9 4 6 16 8 28 5 22 -6 22 -6 2 11 -16 13 -17 15 -3 11 10 -3
20 -2 23 3 4 6 1 10 -4 10 -6 0 -11 5 -11 10 0 6 7 10 15 10 12 0 16 11 15 43
0 67 1 76 11 82 5 3 6 -1 3 -9 -10 -26 12 -18 24 8 9 21 8 23 -14 20 -26 -2
-27 0 -14 31 8 19 9 19 9 -3 1 -37 37 -10 49 38 5 22 6 37 1 34 -5 -3 -9 2 -9
10 0 8 6 13 13 10 8 -3 17 11 25 41 l12 45 84 0 c66 0 86 -3 97 -17 8 -9 10
-14 4 -11 -7 4 -10 -145 -10 -440 0 -387 -2 -446 -15 -449 -12 -4 -13 -3 -1 5
10 7 1 11 -32 13 -25 2 -44 2 -42 -1 2 -3 -2 -10 -9 -16 -9 -8 -16 -7 -26 4
-13 14 -12 15 3 9 11 -4 16 -3 12 3 -3 6 -13 10 -21 10 -12 0 -14 44 -14 287
0 266 -3 314 -14 252 -2 -13 -5 -25 -7 -26 -1 -2 -2 -7 -3 -12 0 -5 -4 -13 -8
-17 -5 -4 -8 -14 -7 -23 0 -12 2 -11 8 3 7 19 8 19 13 -2 5 -17 2 -22 -13 -22
-17 0 -18 -3 -9 -20 7 -14 7 -20 0 -20 -5 0 -10 5 -10 12 0 6 -3 8 -7 4 -5 -4
1 -14 12 -23 20 -15 20 -15 -2 -9 -18 6 -22 2 -29 -26 -4 -18 -8 -43 -8 -56
-1 -13 -8 -27 -16 -32 -10 -6 -11 -10 -3 -10 8 0 12 -14 11 -35 -1 -21 -5 -31
-9 -24 -4 7 -5 18 -2 26 3 7 0 13 -6 13 -12 0 -14 -9 -13 -52 0 -18 -5 -28
-14 -28 -8 0 -13 -4 -9 -9 3 -5 1 -12 -5 -16 -6 -4 -8 -11 -5 -16 4 -5 0 -9
-7 -9 -9 0 -9 -3 2 -10 11 -7 11 -10 2 -10 -10 0 -10 -5 -1 -22 11 -21 11 -22
-4 -9 -10 7 -18 10 -18 5 -1 -5 -3 -20 -4 -33 -3 -34 -22 -42 -93 -39 -50 2
-59 1 -46 -9 15 -11 14 -12 -4 -10 -19 1 -24 19 -9 33 9 10 9 36 0 31 -5 -3
-9 9 -10 26 -3 39 -19 56 -35 38 -11 -12 -9 -13 7 -7 15 6 17 4 8 -5 -15 -15
-32 -4 -28 19 2 9 4 21 4 25 1 5 6 5 13 1 7 -5 8 -3 2 7 -4 8 -9 24 -10 37 0
13 -7 28 -14 35 -10 9 -11 9 -5 -2 6 -10 4 -12 -4 -7 -9 6 -9 11 0 23 8 9 9
17 3 21 -5 4 -10 18 -12 32 -1 13 -7 27 -13 30 -5 4 -9 11 -8 16 1 5 1 16 0
24 -1 12 -5 11 -18 -5 l-16 -20 8 20 c11 32 13 65 3 71 -4 3 -5 10 -2 16 5 7
1 9 -9 5 -10 -3 -17 -2 -17 3 0 6 6 10 13 10 9 0 9 2 0 8 -7 4 -10 16 -9 27 2
11 -5 28 -16 39 -21 19 -35 16 -22 -6 12 -18 14 -39 3 -33 -4 3 -10 -106 -11
-249 l-3 -255 21 5 c23 6 41 -10 24 -21 -5 -3 -10 -1 -10 5 0 7 -7 9 -16 6 -9
-4 -22 -2 -28 3 -18 14 -84 19 -79 5 2 -7 -3 -11 -14 -11 -17 2 -18 26 -23
452 -3 248 -1 453 4 456 4 4 48 7 97 8 66 1 89 -1 90 -11z m-135 -1023 c24 -4
26 -4 9 4 -15 8 -8 10 32 9 31 -1 50 -5 46 -11 -4 -6 5 -7 21 -3 18 4 25 3 21
-4 -3 -5 -1 -10 4 -10 6 0 11 8 11 18 0 14 2 15 9 2 6 -8 8 -17 5 -21 -8 -13
19 -59 30 -52 6 4 4 -2 -4 -12 -11 -14 -12 -19 -2 -22 6 -3 9 -9 6 -14 -3 -6
-7 -21 -9 -35 l-2 -25 23 22 c22 21 28 21 22 2 -2 -5 -6 -7 -10 -6 -5 2 -8
-10 -8 -26 0 -24 -3 -28 -20 -24 -11 3 -20 1 -20 -5 0 -28 -33 -42 -96 -42
l-64 0 0 -57 c0 -72 8 -103 27 -103 8 0 12 -4 9 -9 -3 -4 -17 -6 -32 -3 -20 3
-23 7 -12 14 9 7 8 8 -6 4 -41 -14 -46 6 -46 200 0 159 -2 184 -16 192 -24 13
-7 35 21 28 12 -3 35 -8 51 -11z m298 3 c-3 -4 6 -8 20 -8 14 0 26 -4 26 -10
0 -5 7 -10 16 -10 13 0 13 2 2 14 -8 8 -23 16 -34 19 -10 3 -5 5 13 4 17 -1
29 -5 27 -9 -3 -5 2 -11 10 -14 13 -5 12 -9 -7 -24 -18 -15 -20 -21 -9 -32 11
-11 13 -11 10 1 -2 7 3 16 10 18 14 6 16 -13 2 -22 -6 -4 -7 -11 -4 -17 4 -6
2 -8 -4 -5 -6 5 -8 0 -5 -13 3 -11 10 -20 15 -20 6 0 7 -7 4 -16 -9 -25 3 -54
22 -54 14 0 15 -2 3 -9 -13 -8 -13 -12 0 -27 12 -15 12 -16 0 -9 -10 6 -12 4
-6 -6 5 -7 10 -26 12 -43 2 -16 8 -34 13 -41 5 -7 8 -14 5 -17 -3 -2 2 -5 10
-5 14 0 19 10 16 30 -1 5 3 6 8 2 6 -3 8 -13 4 -23 -3 -10 1 -8 12 6 9 13 14
26 11 29 -3 3 -1 12 5 20 9 9 8 13 0 13 -6 0 -14 0 -18 0 -5 0 -8 -4 -8 -9 0
-5 -3 -13 -7 -17 -5 -4 -8 2 -8 14 0 11 4 23 10 27 5 3 7 12 3 20 -4 11 -1 13
10 9 9 -3 13 -12 10 -21 -4 -10 -2 -14 3 -10 14 8 18 207 5 207 -14 0 -14 37
-1 45 6 4 8 10 6 14 -3 4 16 8 42 8 l47 1 -40 -8 c-36 -6 -33 -7 28 -9 39 0
67 3 67 9 0 6 12 10 26 10 14 0 23 -4 19 -10 -3 -5 1 -10 9 -10 14 0 16 -23
16 -175 0 -96 4 -175 8 -175 4 0 12 4 18 10 6 6 8 -13 6 -50 -3 -53 -1 -60 15
-61 17 0 17 -1 -1 -8 -18 -7 -18 -8 -1 -25 10 -9 14 -20 11 -24 -4 -3 -10 -2
-14 4 -4 6 -15 11 -26 11 -17 0 -17 -1 -2 -12 14 -10 12 -12 -13 -11 -22 1
-31 7 -34 24 -2 12 0 22 5 22 5 0 7 4 3 10 -9 15 -34 0 -28 -17 4 -11 2 -14
-5 -9 -7 4 -12 19 -12 34 0 19 3 23 11 15 6 -6 18 -9 25 -6 33 13 8 19 -82 22
l-95 2 7 -35 c4 -25 3 -36 -5 -36 -7 0 -9 -5 -6 -10 8 -12 3 -13 -29 0 -23 8
-26 15 -26 57 0 27 -4 43 -8 37 -4 -7 -16 -13 -27 -14 -33 -4 -41 0 -25 10 10
6 11 10 3 10 -7 0 -13 7 -13 16 0 9 -5 12 -12 8 -10 -5 -10 -4 -1 6 17 18 -23
48 -72 53 -30 4 -38 1 -42 -14 -3 -11 -9 -19 -14 -19 -5 0 -9 -9 -9 -21 0 -12
-8 -23 -20 -26 -11 -3 -20 -9 -20 -14 0 -14 22 -10 44 8 17 14 17 13 -2 -7
-19 -21 -25 -23 -42 -12 -14 9 -20 9 -20 1 0 -8 -4 -8 -15 1 -15 13 -11 35 6
25 5 -3 6 1 3 9 -3 9 2 23 11 32 11 11 14 26 10 43 -4 21 -3 23 6 11 8 -12 9
-8 4 15 -3 17 -13 36 -22 42 -9 7 -13 16 -8 20 4 5 10 2 12 -5 3 -6 9 -10 14
-6 5 3 9 -3 9 -13 1 -11 7 -4 16 16 8 19 13 39 13 45 -1 6 0 18 4 26 17 44 28
92 23 97 -3 4 -1 12 4 18 6 7 11 23 12 37 1 13 8 25 15 25 6 0 10 -4 7 -9z
m564 -49 c4 -65 9 -82 22 -74 5 3 10 1 10 -5 0 -6 5 -8 12 -4 7 4 8 3 4 -4 -5
-9 -13 -9 -27 -2 -18 10 -19 7 -19 -39 0 -50 13 -74 24 -45 8 22 8 26 -4 19
-5 -3 -10 -1 -10 4 0 6 7 11 15 11 8 0 15 5 15 10 0 6 9 29 20 52 13 28 17 46
10 57 -10 20 -8 47 5 58 4 4 5 -2 2 -14 -3 -13 -1 -26 4 -29 9 -5 13 15 10 49
-1 9 4 17 13 17 9 0 16 -5 16 -11 0 -8 4 -8 13 -1 16 14 54 12 54 -3 -2 -177
5 -385 13 -380 6 4 7 11 4 17 -4 7 -2 8 4 4 9 -5 9 -12 0 -26 -7 -10 -16 -16
-22 -13 -5 4 -7 -1 -2 -12 5 -15 4 -16 -9 -5 -13 11 -16 11 -13 0 2 -8 -5 -16
-14 -18 -10 -2 -18 1 -18 7 0 6 6 11 13 11 9 0 9 2 -1 9 -10 6 -14 43 -15 138
-2 95 -5 126 -13 119 -6 -6 -9 -17 -6 -25 4 -10 1 -12 -9 -6 -8 4 -11 5 -7 0
4 -4 3 -15 -4 -22 -7 -9 -12 -50 -11 -106 0 -76 -1 -83 -7 -42 -4 28 -8 39 -9
25 -2 -23 -3 -23 -10 -5 -8 19 -8 19 -19 -1 -6 -12 -8 -24 -5 -28 10 -9 -59
-67 -77 -64 -9 2 -16 16 -18 37 -3 31 -4 32 -19 14 -12 -15 -12 -13 1 9 13 22
16 58 16 187 0 88 2 166 5 173 3 8 18 13 33 12 26 -1 27 -4 30 -55z m322 50
c0 -5 12 -4 26 1 18 7 31 7 39 0 9 -8 15 -8 20 0 3 5 23 10 43 9 20 0 31 -3
25 -6 -16 -6 -17 -43 -1 -43 6 0 8 -3 5 -7 -4 -3 -1 -16 6 -27 9 -15 11 -51 7
-129 -3 -59 -1 -112 4 -117 5 -5 2 -16 -8 -25 -20 -20 -21 -29 -2 -22 8 3 20
0 26 -8 9 -11 6 -13 -20 -10 -25 3 -31 1 -26 -11 4 -12 1 -14 -14 -9 -15 5
-20 2 -20 -12 0 -10 -4 -14 -8 -8 -9 13 -44 16 -35 3 6 -10 -15 -8 -80 8 -22
5 -26 4 -21 -10 3 -9 1 -16 -5 -16 -6 0 -11 8 -11 18 0 10 -6 24 -12 32 -10
11 -9 11 7 0 19 -14 19 -14 6 3 -8 10 -19 16 -25 14 -8 -3 -10 37 -9 134 3
136 3 138 -18 134 -12 -3 -18 -1 -15 3 4 4 12 8 17 8 5 1 13 2 18 3 11 1 9 20
-3 39 -5 9 -3 20 7 29 10 10 17 12 22 4 3 -6 1 -10 -6 -9 -6 2 -14 -3 -16 -9
-7 -19 8 -15 35 7 13 11 21 23 18 28 -3 5 1 9 9 9 8 0 15 -4 15 -8z"/>
<path d="M909 498 c-1 -68 -2 -135 -3 -150 -2 -22 0 -26 10 -17 7 6 11 18 8
27 -2 9 1 7 7 -5 7 -13 23 -22 44 -25 19 -2 31 0 29 4 -3 4 0 8 5 8 7 0 11 48
11 140 l0 140 -55 0 -55 0 -1 -122z"/>
<path d="M1522 608 c-10 -10 -8 -14 5 -23 16 -9 17 -21 12 -90 l-5 -80 -3 70
c-2 39 -3 76 -2 83 1 6 -2 12 -8 12 -5 0 -11 -38 -13 -85 -2 -59 0 -85 8 -85
7 0 14 -7 18 -15 3 -8 1 -15 -3 -15 -5 0 -12 6 -14 13 -3 6 -6 -1 -6 -18 0
-16 4 -37 10 -45 9 -12 10 -12 5 4 -6 16 -4 17 10 5 9 -7 23 -14 32 -16 21 -3
54 26 45 40 -3 6 -1 7 5 3 9 -5 9 -13 0 -29 -10 -20 -10 -21 6 -8 9 8 15 19
13 25 -2 6 -1 20 3 31 4 11 3 26 -2 32 -6 7 -8 28 -6 47 2 19 0 32 -4 30 -4
-3 -8 1 -8 10 0 8 6 16 13 19 9 3 8 8 -3 22 -9 11 -10 16 -2 11 6 -4 12 -2 12
3 0 6 -8 11 -17 11 -17 1 -17 1 -1 14 13 10 15 15 6 24 -16 16 -91 15 -106 0z"/>
<path d="M3530 1680 c0 -5 36 -48 80 -94 44 -47 80 -88 80 -91 0 -4 -5 -15
-10 -26 -10 -18 -28 -19 -600 -19 -522 0 -590 -2 -604 -16 -14 -13 -16 -64
-16 -398 0 -358 1 -384 18 -399 17 -16 83 -17 750 -17 719 0 732 0 752 20 19
19 20 33 20 393 0 435 4 417 -88 417 -53 0 -59 2 -85 35 -23 29 -35 35 -65 35
-33 1 -47 10 -125 85 -83 81 -107 98 -107 75z m410 -595 l0 -315 -715 0 -715
0 0 315 0 315 715 0 715 0 0 -315z m0 -380 l0 -25 -715 0 -715 0 0 25 0 25
715 0 715 0 0 -25z"/>
<path d="M2779 1301 c-72 -15 -142 -75 -169 -146 -18 -48 -14 -138 9 -183 26
-50 90 -105 140 -120 102 -31 213 12 266 103 101 172 -51 385 -246 346z m119
-46 c145 -61 166 -255 36 -344 -80 -55 -204 -32 -263 49 -113 157 49 369 227
295z"/>
<path d="M3347 1304 c-4 -4 -7 -40 -7 -81 l0 -73 245 0 246 0 -3 78 -3 77
-236 3 c-129 1 -238 -1 -242 -4z m213 -79 l0 -45 -90 0 -90 0 0 45 0 45 90 0
90 0 0 -45z m230 0 l0 -45 -95 0 -95 0 0 45 0 45 95 0 95 0 0 -45z"/>
</g>
</svg>
