<svg width="17" height="17" viewBox="0 0 17 17" fill="none" xmlns="http://www.w3.org/2000/svg">
<path d="M0 0.342834C0.115314 0.0822802 0.314897 0 0.585442 0C2.36838 0.00914224 4.14688 0.00457112 5.92982 0.00457112C5.98304 0.00457112 6.0407 0 6.09392 0.00914224C6.23585 0.0274267 6.33342 0.137134 6.32898 0.269696C6.32455 0.40683 6.22698 0.507394 6.08062 0.516537C6.02739 0.521108 5.96974 0.516537 5.91651 0.516537C4.17793 0.516537 2.44378 0.516537 0.705192 0.516537C0.638664 0.516537 0.576572 0.516537 0.501174 0.516537C0.501174 0.836515 0.501174 1.13821 0.501174 1.44905C5.82781 1.44905 11.15 1.44905 16.4855 1.44905C16.4855 1.14278 16.4855 0.845657 16.4855 0.516537C16.419 0.516537 16.3525 0.516537 16.2815 0.516537C13.2789 0.516537 10.2718 0.516537 7.26924 0.516537C7.20715 0.516537 7.14949 0.516537 7.0874 0.516537C6.93217 0.507394 6.83016 0.40683 6.83459 0.260554C6.83459 0.12342 6.92773 0.0228556 7.07409 0.00457112C7.12288 0 7.17167 0.00457112 7.22489 0.00457112C10.2896 0.00457112 13.3543 0.00457112 16.419 0.00457112C16.8448 0.00457112 16.9956 0.159989 16.9956 0.603388C16.9956 0.886797 16.9956 1.17478 16.9956 1.45819C16.9956 1.79645 16.8226 1.97015 16.49 1.9793C16.4146 1.9793 16.3392 1.9793 16.2416 1.9793C16.2416 2.07072 16.2416 2.14386 16.2416 2.21699C16.2416 5.53106 16.2416 8.84512 16.2416 12.1592C16.2416 12.3786 16.2238 12.5934 16.0997 12.7809C15.9223 13.0506 15.6828 13.2014 15.3634 13.2014C14.8889 13.206 14.4099 13.206 13.9353 13.2014C13.7535 13.2014 13.6426 13.1054 13.6426 12.95C13.6426 12.79 13.7535 12.6894 13.9442 12.6894C14.3877 12.6849 14.8312 12.6894 15.2703 12.6894C15.5941 12.6894 15.7404 12.5432 15.7404 12.214C15.7404 8.84969 15.7404 5.48535 15.7404 2.11643C15.7404 2.07986 15.736 2.03872 15.7315 1.98844C10.9016 1.98844 6.08062 1.98844 1.24185 1.98844C1.24185 2.06158 1.24185 2.13014 1.24185 2.19871C1.24185 5.51277 1.24185 8.82684 1.24185 12.1409C1.24185 12.566 1.3616 12.6894 1.77407 12.6894C5.42421 12.6894 9.07879 12.6894 12.7289 12.6894C12.8043 12.6894 12.8842 12.6894 12.9596 12.7077C13.0837 12.7397 13.1458 12.8357 13.137 12.9637C13.1281 13.1008 13.0483 13.1831 12.9152 13.1968C12.862 13.2014 12.8043 13.2014 12.7511 13.2014C11.4782 13.2014 10.2053 13.206 8.93243 13.1968C8.7772 13.1968 8.73728 13.2425 8.74172 13.398C8.75059 14.0105 8.74615 14.6184 8.74172 15.231C8.74172 15.3453 8.76389 15.4092 8.87477 15.4687C9.19854 15.6424 9.34933 16.0218 9.26063 16.3875C9.17193 16.7349 8.85703 16.9909 8.50665 16.9954C8.15184 17 7.82364 16.7394 7.73493 16.3829C7.64623 16.0172 7.79703 15.6469 8.12079 15.4687C8.2228 15.4138 8.24941 15.3544 8.24941 15.2447C8.24498 14.623 8.24941 14.0013 8.24498 13.3751C8.24498 13.3248 8.24054 13.2745 8.23611 13.2014C8.15627 13.2014 8.08975 13.2014 8.01878 13.2014C5.91208 13.2014 3.80094 13.2014 1.69423 13.2014C1.22854 13.2014 0.882598 12.9454 0.78059 12.5157C0.749543 12.3923 0.749543 12.2552 0.749543 12.1272C0.749543 8.82683 0.749543 5.52191 0.749543 2.22156C0.749543 2.14843 0.749543 2.07529 0.749543 1.9793C0.434646 2.00215 0.141925 1.98844 0 1.6456C0 1.21135 0 0.777091 0 0.342834ZM8.49335 15.8801C8.34255 15.8846 8.2095 16.0218 8.2095 16.1818C8.2095 16.3463 8.35142 16.488 8.50665 16.4835C8.66632 16.4789 8.79937 16.328 8.7905 16.1681C8.78163 16.0081 8.64414 15.8755 8.49335 15.8801Z" fill="black"/>
<path d="M12.0946 3.14941C12.6756 3.14941 13.2566 3.14941 13.8376 3.14941C14.1924 3.14941 14.3476 3.30483 14.3476 3.66595C14.3476 4.74931 14.3476 5.83724 14.3476 6.92059C14.3476 7.28171 14.188 7.4417 13.8376 7.4417C12.6667 7.4417 11.4958 7.4417 10.3205 7.4417C9.979 7.4417 9.81934 7.27714 9.81934 6.93431C9.81934 5.84181 9.81934 4.75388 9.81934 3.66138C9.81934 3.31397 9.979 3.14941 10.3205 3.14941C10.9104 3.14941 11.5047 3.14941 12.0946 3.14941ZM10.3249 6.91602C11.5091 6.91602 12.6711 6.91602 13.8376 6.91602C13.8376 5.82809 13.8376 4.75388 13.8376 3.67966C12.6578 3.67966 11.4914 3.67966 10.3249 3.67966C10.3249 4.76302 10.3249 5.83724 10.3249 6.91602Z" fill="black"/>
<path d="M5.10914 4.77663C4.39064 4.77663 3.67214 4.77663 2.95365 4.77663C2.55892 4.77663 2.41699 4.63035 2.41699 4.21895C2.41699 4.02697 2.41699 3.83041 2.41699 3.63842C2.41699 3.21788 2.55892 3.07617 2.97139 3.07617C3.44595 3.07617 3.92495 3.07617 4.39951 3.07617C5.36194 3.07617 6.32438 3.07617 7.28681 3.07617C7.70371 3.07617 7.8412 3.22245 7.8412 3.65213C7.8412 3.85783 7.8412 4.06353 7.8412 4.26923C7.8412 4.6075 7.68154 4.77663 7.35333 4.7812C6.60379 4.77663 5.85425 4.77663 5.10914 4.77663ZM7.33116 3.59728C5.85425 3.59728 4.39064 3.59728 2.9226 3.59728C2.9226 3.82126 2.9226 4.03611 2.9226 4.25095C4.39951 4.25095 5.85868 4.25095 7.33116 4.25095C7.33116 4.03154 7.33116 3.82126 7.33116 3.59728Z" fill="black"/>
<path d="M5.11401 6.13891C4.39994 6.13891 3.69032 6.13891 2.97625 6.13891C2.92747 6.13891 2.86094 6.1572 2.82989 6.12977C2.7545 6.07035 2.66136 6.00178 2.63031 5.91493C2.59039 5.79608 2.66136 5.69095 2.78111 5.64981C2.83876 5.63152 2.90086 5.62695 2.95851 5.62695C4.40438 5.62695 5.85468 5.62695 7.30055 5.62695C7.34933 5.62695 7.40256 5.62695 7.44691 5.64067C7.57553 5.67724 7.64206 5.77323 7.62875 5.91036C7.61544 6.04292 7.53561 6.1252 7.39812 6.13891C7.34933 6.14349 7.30055 6.13891 7.24732 6.13891C6.5377 6.13891 5.82807 6.13891 5.11401 6.13891Z" fill="black"/>
<path d="M5.12691 7.0216C5.8321 7.0216 6.54173 7.0216 7.24692 7.0216C7.30014 7.0216 7.3578 7.01702 7.41102 7.02617C7.53964 7.04445 7.6106 7.12673 7.62391 7.25015C7.63721 7.37814 7.57512 7.47414 7.45537 7.5107C7.40215 7.52899 7.34893 7.53356 7.29127 7.53356C5.8454 7.53356 4.3951 7.53356 2.94924 7.53356C2.89158 7.53356 2.82505 7.52899 2.77183 7.5107C2.65208 7.46956 2.58112 7.36443 2.62103 7.24558C2.65208 7.15873 2.74078 7.09016 2.82062 7.03074C2.8561 7.00331 2.92706 7.0216 2.98472 7.0216C3.70322 7.0216 4.41728 7.0216 5.12691 7.0216Z" fill="black"/>
<path d="M5.12705 8.91792C4.39968 8.91792 3.66788 8.92249 2.94052 8.91334C2.84738 8.91334 2.72763 8.86763 2.66997 8.79906C2.55466 8.67564 2.63449 8.46994 2.80303 8.41965C2.86512 8.40137 2.93165 8.40137 2.99817 8.40137C4.41743 8.40137 5.83668 8.40137 7.25593 8.40137C7.28698 8.40137 7.32246 8.40137 7.3535 8.40137C7.52647 8.41051 7.64179 8.52022 7.63292 8.67107C7.62848 8.81735 7.5176 8.91334 7.34907 8.91334C6.6084 8.91792 5.86772 8.91792 5.12705 8.91792Z" fill="black"/>
<path d="M5.11816 10.3129C4.4041 10.3129 3.69447 10.3129 2.98041 10.3129C2.90945 10.3129 2.81631 10.322 2.77196 10.2809C2.70543 10.2169 2.6256 10.1072 2.63447 10.0249C2.64334 9.9426 2.74978 9.86489 2.82518 9.81003C2.86066 9.78261 2.93162 9.80089 2.98928 9.80089C4.41297 9.80089 5.84109 9.80089 7.26478 9.80089C7.30913 9.80089 7.35348 9.80089 7.39784 9.80089C7.53976 9.81461 7.62403 9.90146 7.6329 10.0432C7.64177 10.1894 7.5575 10.2763 7.42445 10.3083C7.37566 10.3174 7.32687 10.3129 7.27365 10.3129C6.55072 10.3129 5.83222 10.3129 5.11816 10.3129Z" fill="black"/>
<path d="M5.12694 11.6975C4.41288 11.6975 3.69882 11.6975 2.98476 11.6975C2.93154 11.6975 2.86057 11.7158 2.82066 11.6884C2.74526 11.629 2.65212 11.5558 2.62551 11.4735C2.58559 11.3547 2.66099 11.2541 2.78074 11.2084C2.82953 11.1901 2.88718 11.1855 2.94484 11.1855C4.39958 11.1855 5.85431 11.1855 7.30905 11.1855C7.3534 11.1855 7.39775 11.1901 7.4421 11.1993C7.57072 11.2358 7.64169 11.3273 7.62838 11.4644C7.61507 11.597 7.53968 11.6838 7.40219 11.6929C7.3534 11.6975 7.30461 11.6975 7.25139 11.6975C6.5462 11.6975 5.83657 11.6975 5.12694 11.6975Z" fill="black"/>
<path d="M12.3254 8.61236C13.0883 8.62607 13.7935 8.90948 14.3745 9.49458C14.441 9.56315 14.4898 9.70028 14.4765 9.7917C14.441 9.9974 14.2148 10.0385 14.0507 9.87398C13.7269 9.55858 13.3588 9.33002 12.9242 9.22031C12.0371 8.99633 11.2521 9.19746 10.5646 9.81913C10.3606 10.002 10.2276 10.0294 10.1123 9.8877C10.0058 9.7597 10.0457 9.61343 10.232 9.43516C10.7864 8.90491 11.5271 8.60779 12.3254 8.61236Z" fill="black"/>
<path d="M12.2632 9.61336C12.7865 9.60879 13.2833 9.79621 13.6957 10.1985C13.8332 10.331 13.851 10.491 13.7445 10.6007C13.6425 10.7104 13.5006 10.7013 13.3631 10.5779C12.6756 9.97448 11.8729 9.97448 11.1854 10.5824C11.0479 10.7059 10.9016 10.7104 10.804 10.6007C10.6976 10.4864 10.7153 10.3402 10.8484 10.2122C11.2298 9.8282 11.691 9.63622 12.2632 9.61336Z" fill="black"/>
<path d="M12.3122 10.5918C12.5739 10.5964 12.8311 10.7015 13.044 10.9118C13.1637 11.0306 13.1726 11.1815 13.075 11.2912C12.9819 11.3963 12.8444 11.4009 12.7202 11.3003C12.3876 11.0398 12.1569 11.0398 11.8243 11.3003C11.6957 11.4009 11.5626 11.3963 11.4695 11.2912C11.3719 11.1815 11.3808 11.026 11.5005 10.9118C11.7223 10.6969 11.984 10.5918 12.3122 10.5918Z" fill="black"/>
</svg>
