<svg width="13" height="13" viewBox="0 0 13 13" fill="none" xmlns="http://www.w3.org/2000/svg">
<rect width="13" height="13" rx="6.5" fill="#3D464B"/>
<path d="M9.37248 3.62749C8.53639 2.79084 7.17485 2.79084 6.33965 3.62749L4.02309 5.94385C4.008 5.95895 4.00001 5.97938 4.00001 6.00069C4.00001 6.02201 4.008 6.04244 4.02309 6.05754L4.3506 6.38527C4.36557 6.40019 4.38583 6.40856 4.40696 6.40856C4.42809 6.40856 4.44835 6.40019 4.46332 6.38527L6.77989 4.06892C7.06746 3.78115 7.45 3.62305 7.85651 3.62305C8.26302 3.62305 8.64556 3.78115 8.93225 4.06892C9.21982 4.35668 9.37781 4.73949 9.37781 5.14538C9.37781 5.55217 9.21982 5.93408 8.93225 6.22185L6.57131 8.5835L6.18876 8.96631C5.83107 9.32424 5.24971 9.32424 4.89202 8.96631C4.71894 8.79311 4.62397 8.56307 4.62397 8.31794C4.62397 8.0728 4.71894 7.84277 4.89202 7.66957L7.23432 5.32657C7.29379 5.26795 7.3719 5.23509 7.45533 5.23509H7.45622C7.53965 5.23509 7.61687 5.26795 7.67545 5.32657C7.73491 5.38608 7.76687 5.46424 7.76687 5.54773C7.76687 5.63033 7.73403 5.70848 7.67545 5.7671L5.76095 7.68112C5.74586 7.69622 5.73787 7.71665 5.73787 7.73796C5.73787 7.75928 5.74586 7.77971 5.76095 7.7948L6.08847 8.12254C6.10344 8.13746 6.1237 8.14583 6.14483 8.14583C6.16595 8.14583 6.18622 8.13746 6.20119 8.12254L8.11479 6.20764C8.29142 6.03089 8.38817 5.79641 8.38817 5.54684C8.38817 5.29726 8.29053 5.06189 8.11479 4.88604C7.75 4.521 7.1571 4.52189 6.79231 4.88604L6.56509 5.1143L4.45089 7.22904C4.3074 7.37179 4.19366 7.54162 4.11626 7.72869C4.03886 7.91577 3.99935 8.11636 4.00001 8.31883C4.00001 8.73005 4.16066 9.11641 4.45089 9.40684C4.75178 9.70704 5.14586 9.85714 5.53995 9.85714C5.93403 9.85714 6.32811 9.70704 6.62811 9.40684L9.37248 6.66238C9.77633 6.25738 10 5.71825 10 5.14538C10.0009 4.57162 9.77722 4.0325 9.37248 3.62749Z" fill="white"/>
</svg>
