<svg width="28" height="28" viewBox="0 0 28 28" fill="none" xmlns="http://www.w3.org/2000/svg">
<path d="M8.89054 15.5589C8.77922 15.5589 8.69759 15.5589 8.61596 15.5589C7.30241 15.5589 5.98887 15.5514 4.67532 15.5663C4.54174 15.5663 4.3859 15.6182 4.27458 15.6999C3.2282 16.4719 2.18182 17.2662 1.14286 18.0456C0.779221 18.3203 0.371058 18.2906 0.148423 17.9491C0.0519481 17.8081 0.0148423 17.6002 0.0148423 17.4295C0 14.7052 0 11.9958 0 9.28632C0 7.05196 0 4.8176 0 2.59067C0 1.03181 1.03896 0 2.5974 0C7.23562 0 11.8738 0 16.5121 0C18.0853 0 19.1095 1.03181 19.1095 2.61294C19.1095 4.89183 19.1095 7.17073 19.1095 9.44221C19.1095 9.53871 19.1095 9.64263 19.1095 9.77625C19.2282 9.77625 19.3247 9.77625 19.4286 9.77625C21.4174 9.77625 23.4063 9.77625 25.3952 9.77625C26.9536 9.77625 27.9926 10.8081 27.9926 12.3595C27.9926 17.3033 27.9926 22.2471 27.9852 27.1909C27.9852 27.3616 27.9555 27.5472 27.8738 27.6882C27.6586 28.0445 27.2356 28.0891 26.8646 27.8144C25.833 27.0424 24.8089 26.263 23.7699 25.5058C23.6364 25.4093 23.436 25.3425 23.2727 25.3351C19.3544 25.3277 15.4434 25.3277 11.525 25.3277C9.90724 25.3277 8.88312 24.3107 8.88312 22.6999C8.88312 20.4284 8.88312 18.1644 8.88312 15.8929C8.89054 15.8038 8.89054 15.6999 8.89054 15.5589ZM1.33581 16.2269C2.15213 15.6182 2.91651 15.0467 3.67347 14.4677C3.8961 14.2969 4.13358 14.2227 4.41558 14.2227C8.43043 14.2301 12.4527 14.2301 16.4675 14.2301C17.3581 14.2301 17.7811 13.807 17.7811 12.9236C17.7811 9.50159 17.7811 6.07211 17.7811 2.65005C17.7811 1.75928 17.3581 1.34358 16.475 1.34358C11.8664 1.34358 7.25789 1.34358 2.64935 1.34358C1.75139 1.33616 1.33581 1.75186 1.33581 2.64263C1.33581 7.05196 1.33581 11.4539 1.33581 15.8632C1.33581 15.9671 1.33581 16.0636 1.33581 16.2269ZM10.2189 15.5663C10.2189 15.685 10.2189 15.7815 10.2189 15.8855C10.2189 18.1569 10.2189 20.421 10.2189 22.6925C10.2189 23.5832 10.6419 23.9989 11.525 23.9989C15.5547 23.9989 19.577 23.9989 23.6067 24.0064C23.8367 24.0064 24.1039 24.0954 24.2894 24.2291C25.0167 24.7413 25.7143 25.2831 26.4267 25.8176C26.4935 25.8621 26.5603 25.9067 26.6494 25.9661C26.6568 25.877 26.6568 25.825 26.6568 25.7731C26.6568 21.2747 26.6568 16.7688 26.6568 12.2704C26.6568 11.5726 26.1892 11.105 25.4917 11.105C23.436 11.105 21.3803 11.105 19.3247 11.105C19.2579 11.105 19.1837 11.1198 19.1169 11.1273C19.1169 11.5949 19.1169 12.0329 19.1169 12.4708C22.2635 12.9682 24.0371 15.8855 23.4286 18.6469C22.82 21.4008 20.1039 23.1304 17.3507 22.5514C14.4564 21.9353 12.4007 18.684 13.6994 15.5663C12.5566 15.5663 11.4063 15.5663 10.2189 15.5663ZM19.013 13.8367C18.9907 13.8887 18.9685 13.9332 18.9462 13.9703C18.5826 14.8611 17.9295 15.3955 16.9796 15.5217C16.4824 15.5885 15.9629 15.5589 15.4583 15.5514C15.2876 15.5514 15.1911 15.6108 15.1169 15.7593C14.6865 16.5907 14.5529 17.4517 14.7532 18.3648C15.2134 20.3839 17.1577 21.6681 19.1688 21.2672C21.1948 20.8664 22.5009 18.9438 22.1596 16.8876C21.8998 15.3362 20.5269 14 19.013 13.8367Z" fill="black"/>
<path d="M14.6642 7.78687C14.6717 10.578 12.3711 12.8866 9.58075 12.894C6.76071 12.9014 4.44531 10.6151 4.44531 7.81656C4.44531 4.95866 6.71618 2.67977 9.57333 2.67234C12.3711 2.6575 14.6568 4.95866 14.6642 7.78687ZM13.3284 7.79429C13.3284 5.69355 11.6438 4.0085 9.53622 4.0085C7.46572 4.0085 5.7737 5.7084 5.7737 7.80172C5.7737 9.86534 7.47314 11.5652 9.53622 11.5652C11.629 11.5578 13.3284 9.86535 13.3284 7.79429Z" fill="black"/>
<path d="M18.4417 17.7784C19.3322 17.8081 20.0892 18.1124 20.6457 18.8028C20.7719 18.9661 20.8684 19.1962 20.8758 19.404C20.8906 19.6861 20.7051 19.8791 20.4305 19.9756C20.1634 20.0721 19.8888 19.9905 19.6958 19.7381C19.2654 19.1888 18.694 18.9958 18.0409 19.1888C17.7515 19.2779 17.4695 19.4857 17.2468 19.701C16.9203 20.0202 16.5789 20.1092 16.2672 19.8791C15.9481 19.6416 15.9036 19.2333 16.1856 18.877C16.757 18.1273 17.5363 17.8007 18.4417 17.7784Z" fill="black"/>
<path d="M16.913 15.7815C17.2766 15.7964 17.5734 16.1082 17.5512 16.4719C17.5363 16.8356 17.2172 17.1251 16.8536 17.1103C16.4974 17.088 16.2154 16.7837 16.2228 16.4273C16.2302 16.0636 16.5493 15.7667 16.913 15.7815Z" fill="black"/>
<path d="M19.9926 15.7816C20.3563 15.7816 20.6605 16.0859 20.6605 16.4497C20.6605 16.8134 20.3489 17.1177 19.9852 17.1103C19.629 17.1029 19.3396 16.806 19.3322 16.4571C19.3247 16.0934 19.629 15.7816 19.9926 15.7816Z" fill="black"/>
<path d="M9.49919 10.333C8.73481 10.3107 7.95559 9.97668 7.38416 9.22694C7.14669 8.91517 7.16895 8.56629 7.40643 8.32133C7.70327 8.01698 8.14112 8.06152 8.43796 8.41783C8.89807 8.96714 9.61792 9.16756 10.2561 8.87806C10.4936 8.77414 10.7014 8.58856 10.8795 8.39556C11.1689 8.09121 11.5326 8.01698 11.8368 8.25452C12.1263 8.48463 12.1782 8.85579 11.9482 9.18983C11.4955 9.88018 10.5827 10.333 9.49919 10.333Z" fill="black"/>
<path d="M8.66061 6.71046C8.63835 7.07419 8.31182 7.36369 7.94818 7.334C7.58454 7.30431 7.30254 6.97769 7.33222 6.61396C7.36191 6.25765 7.6736 5.98299 8.02981 6.00526C8.39345 6.02011 8.68287 6.34672 8.66061 6.71046Z" fill="black"/>
<path d="M11.7773 6.66598C11.7773 7.02972 11.473 7.33407 11.1093 7.33407C10.7457 7.33407 10.4414 7.02229 10.4489 6.65856C10.4563 6.30225 10.7457 6.01274 11.1019 6.00532C11.4656 5.9979 11.7698 6.30225 11.7773 6.66598Z" fill="black"/>
</svg>
