<svg width="56" height="56" viewBox="0 0 56 56" fill="none" xmlns="http://www.w3.org/2000/svg">
<path d="M5.6 11.2H0V50.4C0 53.48 2.52 56 5.6 56H44.8V50.4H5.6V11.2ZM50.4 0H16.8C13.72 0 11.2 2.52 11.2 5.6V39.2C11.2 42.28 13.72 44.8 16.8 44.8H50.4C53.48 44.8 56 42.28 56 39.2V5.6C56 2.52 53.48 0 50.4 0ZM50.4 39.2H16.8V5.6H50.4V39.2ZM32.228 22.848C33.376 20.804 35.532 19.6 36.792 17.808C38.136 15.904 37.38 12.376 33.6 12.376C31.136 12.376 29.904 14.252 29.4 15.82L25.564 14.224C26.628 11.088 29.456 8.4 33.572 8.4C37.016 8.4 39.396 9.968 40.6 11.928C41.636 13.608 42.224 16.772 40.628 19.124C38.864 21.728 37.184 22.512 36.26 24.192C35.896 24.864 35.756 25.312 35.756 27.496H31.5C31.528 26.348 31.332 24.472 32.228 22.848ZM30.66 33.46C30.66 31.808 31.976 30.548 33.6 30.548C35.252 30.548 36.512 31.808 36.512 33.46C36.512 35.084 35.28 36.4 33.6 36.4C31.976 36.4 30.66 35.084 30.66 33.46Z" fill="#FFE247"/>
</svg>
