<svg width="56" height="56" viewBox="0 0 56 56" fill="none" xmlns="http://www.w3.org/2000/svg">
<path d="M0 6.41667C0 4.71486 0.67604 3.08276 1.8794 1.8794C3.08276 0.67604 4.71486 0 6.41667 0H44.9167C46.6185 0 48.2506 0.67604 49.4539 1.8794C50.6573 3.08276 51.3333 4.71486 51.3333 6.41667V26.8333C50.2499 26.0185 49.0754 25.3325 47.8333 24.7893V6.41667C47.8333 4.80667 46.5267 3.5 44.9167 3.5H6.41667C4.80667 3.5 3.5 4.80667 3.5 6.41667V44.9167C3.5 46.5267 4.80667 47.8333 6.41667 47.8333H24.7893C25.3353 49.0817 26.0237 50.2553 26.831 51.3333H6.41667C4.71486 51.3333 3.08276 50.6573 1.8794 49.4539C0.67604 48.2506 0 46.6185 0 44.9167V6.41667Z" fill="#FFE247"/>
<path d="M8.75 30.3287H26.8333C26.0194 31.4123 25.3343 32.5868 24.7917 33.8287H8.75C8.28587 33.8287 7.84075 33.6443 7.51256 33.3161C7.18437 32.9879 7 32.5428 7 32.0787C7 31.6145 7.18437 31.1694 7.51256 30.8412C7.84075 30.513 8.28587 30.3287 8.75 30.3287Z" fill="#FFE247"/>
<path d="M7 41.419C7 40.9548 7.18437 40.5097 7.51256 40.1815C7.84075 39.8534 8.28587 39.669 8.75 39.669H21.588C22.0521 39.669 22.4972 39.8534 22.8254 40.1815C23.1536 40.5097 23.338 40.9548 23.338 41.419C23.338 41.8831 23.1536 42.3282 22.8254 42.6564C22.4972 42.9846 22.0521 43.169 21.588 43.169H8.75C8.28587 43.169 7.84075 42.9846 7.51256 42.6564C7.18437 42.3282 7 41.8831 7 41.419Z" fill="#FFE247"/>
<path d="M19.838 7C20.1816 7.00038 20.5176 7.10192 20.8039 7.29196C21.0902 7.48201 21.3142 7.75214 21.448 8.06867L27.8623 23.2423C27.9541 23.4545 28.0029 23.6827 28.006 23.9139C28.0091 24.145 27.9664 24.3744 27.8803 24.589C27.7942 24.8035 27.6665 24.9988 27.5044 25.1637C27.3424 25.3286 27.1494 25.4598 26.9364 25.5496C26.7234 25.6394 26.4947 25.6862 26.2636 25.6872C26.0324 25.6882 25.8034 25.6433 25.5896 25.5553C25.3759 25.4672 25.1817 25.3377 25.0183 25.1742C24.8549 25.0107 24.7256 24.8165 24.6377 24.6027L23.611 22.1713H16.0557L15.0267 24.605C14.937 24.8167 14.8066 25.0087 14.6427 25.1701C14.4789 25.3314 14.2849 25.4588 14.0718 25.5452C13.8587 25.6315 13.6307 25.6751 13.4008 25.6733C13.1709 25.6715 12.9436 25.6245 12.7318 25.5348C12.5201 25.4452 12.3281 25.3148 12.1668 25.1509C12.0054 24.9871 11.878 24.7931 11.7916 24.58C11.7053 24.3669 11.6618 24.1389 11.6635 23.909C11.6653 23.679 11.7124 23.4517 11.802 23.24L18.2233 8.06633C18.3575 7.75024 18.5816 7.4806 18.8679 7.29099C19.1542 7.10138 19.4899 7.00018 19.8333 7H19.838ZM17.5397 18.6713H22.1293L19.8357 13.2417L17.5397 18.6713Z" fill="#FFE247"/>
<path d="M34.4166 7C34.8808 7 35.3259 7.18437 35.6541 7.51256C35.9823 7.84075 36.1666 8.28587 36.1666 8.75V11.6667H39.0833C39.5474 11.6667 39.9926 11.851 40.3207 12.1792C40.6489 12.5074 40.8333 12.9525 40.8333 13.4167C40.8333 13.8808 40.6489 14.3259 40.3207 14.6541C39.9926 14.9823 39.5474 15.1667 39.0833 15.1667H36.1666V18.0787C36.1666 18.5428 35.9823 18.9879 35.6541 19.3161C35.3259 19.6443 34.8808 19.8287 34.4166 19.8287C33.9525 19.8287 33.5074 19.6443 33.1792 19.3161C32.851 18.9879 32.6666 18.5428 32.6666 18.0787V15.1667H29.7546C29.2905 15.1667 28.8454 14.9823 28.5172 14.6541C28.189 14.3259 28.0046 13.8808 28.0046 13.4167C28.0046 12.9525 28.189 12.5074 28.5172 12.1792C28.8454 11.851 29.2905 11.6667 29.7546 11.6667H32.6666V8.75C32.6666 8.28587 32.851 7.84075 33.1792 7.51256C33.5074 7.18437 33.9525 7 34.4166 7Z" fill="#FFE247"/>
<path d="M56 40.8333C56 44.8558 54.4021 48.7135 51.5578 51.5578C48.7135 54.4021 44.8558 56 40.8334 56C36.8109 56 32.9532 54.4021 30.1089 51.5578C27.2646 48.7135 25.6667 44.8558 25.6667 40.8333C25.6667 36.8109 27.2646 32.9532 30.1089 30.1089C32.9532 27.2646 36.8109 25.6667 40.8334 25.6667C44.8558 25.6667 48.7135 27.2646 51.5578 30.1089C54.4021 32.9532 56 36.8109 56 40.8333ZM42 31.5C42 31.1906 41.8771 30.8938 41.6583 30.675C41.4395 30.4562 41.1428 30.3333 40.8334 30.3333C40.5239 30.3333 40.2272 30.4562 40.0084 30.675C39.7896 30.8938 39.6667 31.1906 39.6667 31.5V39.6667H31.5C31.1906 39.6667 30.8939 39.7896 30.6751 40.0084C30.4563 40.2272 30.3334 40.5239 30.3334 40.8333C30.3334 41.1427 30.4563 41.4395 30.6751 41.6583C30.8939 41.8771 31.1906 42 31.5 42H39.6667V50.1667C39.6667 50.4761 39.7896 50.7728 40.0084 50.9916C40.2272 51.2104 40.5239 51.3333 40.8334 51.3333C41.1428 51.3333 41.4395 51.2104 41.6583 50.9916C41.8771 50.7728 42 50.4761 42 50.1667V42H50.1667C50.4761 42 50.7729 41.8771 50.9916 41.6583C51.2104 41.4395 51.3334 41.1427 51.3334 40.8333C51.3334 40.5239 51.2104 40.2272 50.9916 40.0084C50.7729 39.7896 50.4761 39.6667 50.1667 39.6667H42V31.5Z" fill="#FFE247"/>
</svg>
